<svg id="Слой_3" data-name="Слой 3" xmlns="http://www.w3.org/2000/svg" xmlns:xlink="http://www.w3.org/1999/xlink" viewBox="0 0 35 35"><defs><style>.cls-1{fill:url(#Безымянный_градиент_12);}</style><linearGradient id="Безымянный_градиент_12" x1="3.6" y1="8.92" x2="37.35" y2="39.92" gradientUnits="userSpaceOnUse"><stop offset="0" stop-color="#f77a63"/><stop offset="0.52" stop-color="#ca3964"/><stop offset="1" stop-color="#803575"/></linearGradient></defs><title>c</title><path class="cls-1" d="M33.84,22.58,28,16.78A2.52,2.52,0,0,0,26.25,16h-.09V14.65a1,1,0,0,0,.56-.89v-4a1,1,0,0,0-1-1h-5V6.14A1.81,1.81,0,0,0,18,4.58L14.74,6.49a2.47,2.47,0,0,0-1.85,0L9.57,4.58A1.81,1.81,0,0,0,6.86,6.14V8.82h-5a1,1,0,0,0-1,1v4a1,1,0,0,0,1,1h9V27.59H2.94a.5.5,0,0,1-.49-.49V16.23a.49.49,0,0,0-1,0h0V27.1a1.48,1.48,0,0,0,1.48,1.48h8a1,1,0,0,0,.85.49h4a1,1,0,0,0,.85-.49h8a1.48,1.48,0,0,0,1.48-1.48v-.4l1.78,1.78a2.69,2.69,0,0,0,3.8,0l2.1-2.1a2.69,2.69,0,0,0,0-3.8ZM25.73,9.81v4h-9v-4Zm-.56,4.94V16H23.75a2.28,2.28,0,0,0-1.15.32,4.09,4.09,0,0,1-.54-1.61h3.12ZM13.1,7.48a1.48,1.48,0,0,1,2.12.85H12.4A1.5,1.5,0,0,1,13.1,7.48Zm-2.25,6.28h-9v-4h9Zm.65-5.84L9.57,6.82a.49.49,0,0,0-.49.86L11,8.78l0,0H7.84V6.14a.82.82,0,0,1,1.23-.71L12,7.11A2.46,2.46,0,0,0,11.49,7.92Zm4.29,1.39v4.45h-2.5a.49.49,0,1,0,0,1h2.5V28.09h-4V9.32h4Zm.85-.49,0,0,1.93-1.11A.49.49,0,0,0,18,6.82L16.13,7.92a2.47,2.47,0,0,0-.49-.81l2.91-1.68a.82.82,0,0,1,1.23.71V8.82H16.64Zm8,18.77h-7.9V14.75h4.28A5.07,5.07,0,0,0,21.85,17a2.3,2.3,0,0,0-.46,1.36h0c0,.55,0,1.61,0,2.5a2.52,2.52,0,0,0,.74,1.79l3,3V27.1h0A.49.49,0,0,1,24.68,27.59Zm8.46-1.91L31,27.78a1.7,1.7,0,0,1-2.4,0L26,25.16h0L22.84,22a1.54,1.54,0,0,1-.46-1.09c0-.9,0-2,0-2.5a1.28,1.28,0,0,1,.13-.54l0,0,.64.64a.49.49,0,0,0,.7-.7l-.64-.64,0,0a1.28,1.28,0,0,1,.54-.12h2.5a1.54,1.54,0,0,1,1.09.45l5.8,5.8a1.7,1.7,0,0,1,0,2.4Z"/></svg>