<svg id="Слой_2" data-name="Слой 2" xmlns="http://www.w3.org/2000/svg" xmlns:xlink="http://www.w3.org/1999/xlink" viewBox="0 0 35 35"><defs><style>.cls-1{fill:url(#Безымянный_градиент_12);}.cls-2{fill:url(#Безымянный_градиент_12-2);}.cls-3{fill:url(#Безымянный_градиент_12-3);}</style><linearGradient id="Безымянный_градиент_12" x1="5.62" y1="6.88" x2="32.53" y2="36.05" gradientUnits="userSpaceOnUse"><stop offset="0" stop-color="#f77a63"/><stop offset="0.52" stop-color="#ca3964"/><stop offset="1" stop-color="#803575"/></linearGradient><linearGradient id="Безымянный_градиент_12-2" x1="7.63" y1="5.07" x2="34.55" y2="34.23" xlink:href="#Безымянный_градиент_12"/><linearGradient id="Безымянный_градиент_12-3" x1="7.41" y1="5.27" x2="34.32" y2="34.44" xlink:href="#Безымянный_градиент_12"/></defs><title>b</title><path class="cls-1" d="M31.32,29.92l-3.53-4.54a5.11,5.11,0,0,0,2.8-2.07c.83-1.44.46-3.19.09-4.89a13.36,13.36,0,0,1-.39-2.66,13.35,13.35,0,0,1,.39-2.66c.36-1.7.74-3.45-.09-4.89s-2.6-2-4.28-2.57a12.44,12.44,0,0,1-2.41-.95A11.8,11.8,0,0,1,22,3.12C20.71,2,19.3.66,17.5.66S14.29,2,13,3.12a11.8,11.8,0,0,1-1.93,1.57,12.43,12.43,0,0,1-2.41.94C7,6.17,5.28,6.72,4.42,8.21S4,11.4,4.33,13.1a13.35,13.35,0,0,1,.39,2.66,13.35,13.35,0,0,1-.39,2.66c-.36,1.7-.74,3.45.09,4.89a5.12,5.12,0,0,0,2.8,2.07L3.68,29.92a.58.58,0,0,0,.53.93l4.15-.52,1,3.59a.58.58,0,0,0,.45.41H10a.58.58,0,0,0,.46-.22l3.71-4.77a5.37,5.37,0,0,0,3.38,1.51,5.37,5.37,0,0,0,3.38-1.51l3.71,4.77a.58.58,0,0,0,.46.23h.11a.58.58,0,0,0,.45-.41l1-3.59,4.15.52a.58.58,0,0,0,.53-.93ZM10.19,32.5l-.85-3a.58.58,0,0,0-.63-.42l-3.25.41,2.91-3.75.32.1a12.43,12.43,0,0,1,2.41.94A11.8,11.8,0,0,1,13,28.39l.2.18ZM17.5,29.7c-1.34,0-2.47-1-3.66-2.15a12.8,12.8,0,0,0-2.14-1.72,13.47,13.47,0,0,0-2.64-1c-1.53-.49-3-.95-3.62-2s-.29-2.51,0-4.07a14.22,14.22,0,0,0,.42-2.9,14.22,14.22,0,0,0-.42-2.9c-.33-1.55-.65-3,0-4.07S7.51,7.23,9,6.74a13.47,13.47,0,0,0,2.64-1A12.8,12.8,0,0,0,13.83,4C15,2.87,16.16,1.82,17.5,1.82S20,2.87,21.17,4A12.8,12.8,0,0,0,23.31,5.7a13.47,13.47,0,0,0,2.64,1c1.53.49,3,.95,3.62,2s.29,2.51,0,4.07a14.22,14.22,0,0,0-.42,2.9,14.22,14.22,0,0,0,.42,2.9c.33,1.55.65,3,0,4.07s-2.09,1.56-3.62,2a13.47,13.47,0,0,0-2.64,1,12.8,12.8,0,0,0-2.14,1.72C20,28.65,18.84,29.7,17.5,29.7Zm8.79-.58a.58.58,0,0,0-.63.42l-.85,3-3.05-3.92.2-.18a11.8,11.8,0,0,1,1.93-1.57,12.43,12.43,0,0,1,2.41-.94l.32-.1,2.92,3.75Z"/><path class="cls-2" d="M17.5,5.3A10.45,10.45,0,1,0,28,15.76,10.45,10.45,0,0,0,17.5,5.3ZM17.5,25a9.29,9.29,0,1,1,9.29-9.29A9.29,9.29,0,0,1,17.5,25Z"/><path class="cls-3" d="M24.2,13.33a1.16,1.16,0,0,0-.94-.48H19.71L18.6,9.47a1.16,1.16,0,0,0-2.21,0l-1.1,3.38H11.74a1.16,1.16,0,0,0-.68,2.1L13.93,17l-1.1,3.38a1.16,1.16,0,0,0,1.79,1.3l2.88-2.09,2.88,2.09a1.16,1.16,0,0,0,1.79-1.3L21.07,17,23.94,15A1.16,1.16,0,0,0,24.2,13.33Zm-4.16,3a.58.58,0,0,0-.21.65l1.23,3.79-3.22-2.34a.58.58,0,0,0-.68,0l-3.22,2.34L15.17,17a.58.58,0,0,0-.21-.65L11.74,14h4a.58.58,0,0,0,.55-.4L17.5,9.83l1.23,3.78a.58.58,0,0,0,.55.4h4Z"/></svg>