<svg id="Слой_1" data-name="Слой 1" xmlns="http://www.w3.org/2000/svg" xmlns:xlink="http://www.w3.org/1999/xlink" viewBox="0 0 35 35"><defs><style>.cls-1{fill-rule:evenodd;fill:url(#Безымянный_градиент_12);}</style><linearGradient id="Безымянный_градиент_12" x1="6.51" y1="6.28" x2="40.01" y2="42.28" gradientUnits="userSpaceOnUse"><stop offset="0" stop-color="#f77a63"/><stop offset="0.52" stop-color="#ca3964"/><stop offset="1" stop-color="#803575"/></linearGradient></defs><title>a</title><path class="cls-1" d="M4.83,3.81,1.08,1.93A.66.66,0,1,1,1.66.75l4,2a.66.66,0,0,1,.4.5l.87,4.91H23.22a.66.66,0,1,1,0,1.32h-16L9.91,24.87H12a.66.66,0,1,1,0,1.32H10.14l.34,1.9a3.13,3.13,0,0,1,2.94,2.46h11.1a3.12,3.12,0,1,1,0,1.32H13.42a3.12,3.12,0,1,1-4.24-3.55L4.83,3.81ZM17.31,26.18H28.5a2.74,2.74,0,0,0,2-.83,3.9,3.9,0,0,0,1-2.08L33.6,11.52a2.34,2.34,0,0,0,0-.41,2.86,2.86,0,0,0-.79-1.9,3.25,3.25,0,0,0-1.79-1,2.65,2.65,0,0,0-.47,0H28.5a.66.66,0,1,0,0,1.32h2.09l.24,0a1.91,1.91,0,0,1,1,.6,1.54,1.54,0,0,1,.44,1,1,1,0,0,1,0,.19L30.21,23.05a2.57,2.57,0,0,1-.66,1.37,1.45,1.45,0,0,1-1.05.44H17.31a.66.66,0,0,0,0,1.32Zm-2.64-1.32a.66.66,0,1,0,.66.66.66.66,0,0,0-.66-.66ZM25.86,8.16a.66.66,0,1,0,.66.66.66.66,0,0,0-.66-.66ZM14.08,12.39a3.78,3.78,0,0,0,0,5.33l5.14,5.14a.66.66,0,0,0,.93,0l5.14-5.14A3.77,3.77,0,0,0,20,12.39l-.28.28-.28-.28a3.78,3.78,0,0,0-5.33,0Zm2.66.22A2.45,2.45,0,0,0,15,16.79l4.67,4.67,4.67-4.67a2.45,2.45,0,0,0-3.46-3.46l-.74.74a.66.66,0,0,1-.93,0l-.74-.74a2.44,2.44,0,0,0-1.73-.71ZM28.85,29.93a1.81,1.81,0,1,0,.53,1.28,1.8,1.8,0,0,0-.53-1.28Zm-17.21,0a1.81,1.81,0,1,0,.53,1.28,1.8,1.8,0,0,0-.53-1.28Zm0,0"/></svg>