<svg id="Слой_1" data-name="Слой 1" xmlns="http://www.w3.org/2000/svg" xmlns:xlink="http://www.w3.org/1999/xlink" viewBox="0 0 324.22 78.52"><defs><style>.cls-1,.cls-2,.cls-4{fill:none;}.cls-2,.cls-4{stroke:#d2ab67;stroke-linecap:round;stroke-linejoin:round;}.cls-2{stroke-width:0.57px;}.cls-3{fill:#d2ab67;}.cls-4{stroke-width:2.13px;}.cls-5{fill:#2e3192;}.cls-6{clip-path:url(#clip-path);}.cls-7{fill:#8cc63f;}.cls-8{fill:#0db14b;}.cls-9{fill:#cadb2a;}.cls-10{fill:#0092a3;}.cls-11{fill:#c2cb20;}.cls-12,.cls-30{fill:#fff200;}.cls-13,.cls-28{fill:#ffc20e;}.cls-14{fill:#009ca5;}.cls-15{fill:#b3d335;}.cls-16{fill:#00a7ba;}.cls-17,.cls-23{fill:#f58220;}.cls-18{fill:#bd1a8d;}.cls-19{fill:#ed1846;}.cls-19,.cls-20,.cls-21,.cls-22,.cls-23,.cls-27,.cls-28,.cls-29,.cls-30{fill-rule:evenodd;}.cls-20{fill:#f15a25;}.cls-21,.cls-38{fill:#fff;}.cls-22{fill:#78cdd1;}.cls-24{fill:#6fcff0;}.cls-25{fill:#ed1c24;}.cls-26{fill:#f7931e;}.cls-27{fill:#0092af;}.cls-29{fill:#ffcb05;}.cls-31{fill:#a1dbe3;}.cls-32{fill:#ed0180;}.cls-33{fill:#bac9e7;}.cls-34{fill:#facad4;}.cls-35{fill:#ffe3af;}.cls-36{fill:#fdc578;}.cls-37{fill:#26bdbe;}.cls-39{fill:#f598aa;}.cls-40{fill:#ead119;}.cls-41{fill:#ee4d9b;}.cls-42{fill:#96d5d2;}.cls-43{fill:#f8c3da;}.cls-44{fill:#bad7f1;}.cls-45{fill:#e2e419;}.cls-46{fill:#ec008c;}.cls-47{fill:#5dc4b6;}.cls-48{fill:#cadb37;}.cls-49{fill:#92cbb8;}.cls-50{fill:#bed730;}.cls-51{fill:#44c8f5;}.cls-52{fill:#97d5c9;}</style><clipPath id="clip-path"><path class="cls-1" d="M317.42,19.86a25.48,25.48,0,0,0-5.4-8,23,23,0,0,0-7.68-5A25,25,0,0,0,295,5.14a27.17,27.17,0,0,0-7.83,1.1,23.72,23.72,0,0,0-6.36,3,23.35,23.35,0,0,0-4.9,4.38,25.68,25.68,0,0,0-3.48,5.28,26.94,26.94,0,0,0-2.07,5.69,24.16,24.16,0,0,0-.69,5.61,25.28,25.28,0,0,0,.69,5.75,27.45,27.45,0,0,0,2.08,5.78,25.85,25.85,0,0,0,3.47,5.33,24,24,0,0,0,4.89,4.42,23.28,23.28,0,0,0,6.32,3,26.31,26.31,0,0,0,7.75,1.11,25.78,25.78,0,0,0,7.37-1,22.91,22.91,0,0,0,6.24-2.93,23.57,23.57,0,0,0,5-4.53,27.06,27.06,0,0,0,3.69-5.82H306.75a14.27,14.27,0,0,1-3.4,3.21,14.07,14.07,0,0,1-4,1.83,15.78,15.78,0,0,1-4.28.59A16.33,16.33,0,0,1,283.37,42a16.78,16.78,0,0,1-4.76-11.76,16.24,16.24,0,0,1,.77-5,16.55,16.55,0,0,1,5.68-8.08,16,16,0,0,1,4.54-2.42,16.88,16.88,0,0,1,5.43-.88,15.12,15.12,0,0,1,5.18.87,15,15,0,0,1,4,2.21,16.73,16.73,0,0,1,3,2.93ZM267.1,6h-9.82L246.09,31.77,233.33,6H222.47l18.59,36.12-5.69,12.3h9.82ZM185.75,54.41h9V33.21l15.05,21.2H220.5L202.24,29.81,220.5,6H209.77L194.72,27V6h-9Zm-18.13,0h9V6h-9Zm-59.09,0h9V18.16l12.24,36.25h7.59l12.24-36.25V54.41h9V6H146.36L133.53,43,120.7,6H108.53Zm-32-7.53A16.27,16.27,0,0,1,61.31,36.72,16.91,16.91,0,0,1,60,30.27a16.6,16.6,0,0,1,1.25-6.38A16.1,16.1,0,0,1,70,15.14a17.37,17.37,0,0,1,13.18,0,16.11,16.11,0,0,1,8.71,8.75,16.6,16.6,0,0,1,1.25,6.38,17,17,0,0,1-1.24,6.4A16.56,16.56,0,0,1,88.45,42a16.08,16.08,0,0,1-5.27,3.59A16.77,16.77,0,0,1,76.53,46.89ZM76.6,5.14a26.33,26.33,0,0,0-8.21,1.29A25,25,0,0,0,55.9,15.5a25.06,25.06,0,0,0-3.56,6.95,25.92,25.92,0,0,0-1.27,8,25.41,25.41,0,0,0,1.28,8,24.42,24.42,0,0,0,3.57,6.9,24.82,24.82,0,0,0,5.48,5.42,25.47,25.47,0,0,0,7,3.54,27.08,27.08,0,0,0,16.36,0,25.07,25.07,0,0,0,12.51-9,24.66,24.66,0,0,0,3.56-6.9,25.42,25.42,0,0,0,1.28-8,25.91,25.91,0,0,0-1.27-8A24.77,24.77,0,0,0,97.3,15.5,25.07,25.07,0,0,0,91.83,10a25.58,25.58,0,0,0-7-3.59A26.32,26.32,0,0,0,76.6,5.14ZM16.72,45.71v-31h3.93c.83,0,1.83,0,3,.1a24.63,24.63,0,0,1,3.73.59,16.31,16.31,0,0,1,3.88,1.45,12.29,12.29,0,0,1,3.47,2.74A12.73,12.73,0,0,1,37.22,24a20.09,20.09,0,0,1,1,6.49,18.85,18.85,0,0,1-.93,6.22,11.91,11.91,0,0,1-5.77,6.9A15.94,15.94,0,0,1,27.71,45a23.38,23.38,0,0,1-3.64.59c-1.15.09-2.14.12-3,.11Zm-9,8.7H21.37a37,37,0,0,0,9.14-1.06,23.7,23.7,0,0,0,6.68-2.79,19.67,19.67,0,0,0,4.61-3.95,20.32,20.32,0,0,0,2.91-4.56,24.53,24.53,0,0,0,1.61-4.58A29.8,29.8,0,0,0,47,33.42a29.46,29.46,0,0,0,.14-3,32.42,32.42,0,0,0-.38-5.08,26.78,26.78,0,0,0-1.41-5.45,20.84,20.84,0,0,0-2.86-5.24,18.82,18.82,0,0,0-4.71-4.45,23,23,0,0,0-7-3.1A37,37,0,0,0,21.17,6H7.75Z"/></clipPath></defs><title>logo-2</title><path class="cls-2" d="M200.75,72V62.71h6.75v1.1H202v2.86h5.16v1.1H202v3.18h5.73V72Zm-7.33,0V62.71h1.24v8.23h4.6V72Zm-3.36,0V62.71h1.23V72Zm-5.8,0V63.81h-3.08v-1.1h7.4v1.1h-3.09V72Zm-12,0,3.61-4.86-3.18-4.47h1.47l1.7,2.4a13.19,13.19,0,0,1,.75,1.15,12.33,12.33,0,0,1,.74-1.06l1.88-2.48h1.34l-3.28,4.4L180.79,72h-1.53l-2.35-3.33c-.13-.19-.27-.4-.41-.62-.21.34-.36.57-.45.7L173.72,72Zm-7.72,0V62.71h6.75v1.1h-5.51v2.86h5.16v1.1h-5.16v3.18h5.73V72Zm-5.62,0V63.81h-3.08v-1.1h7.4v1.1h-3.09V72Zm-14.44,0V62.71h6.75v1.1H145.7v2.86h5.16v1.1H145.7v3.18h5.73V72Zm-10.93,0V62.71h1.86l2.21,6.61c.2.61.35,1.08.45,1.38q.16-.51.5-1.5l2.23-6.49h1.66V72h-1.19V64.23L138.54,72h-1.11l-2.7-7.95V72Zm-9.21-4.53a3.74,3.74,0,0,0,.91,2.66,3.17,3.17,0,0,0,4.57,0,4,4,0,0,0,.9-2.78,4.79,4.79,0,0,0-.39-2,3,3,0,0,0-1.13-1.32,3.07,3.07,0,0,0-1.66-.47,3.15,3.15,0,0,0-2.26.9A4,4,0,0,0,124.33,67.52Zm-1.27,0a5.07,5.07,0,0,1,1.25-3.64,4.25,4.25,0,0,1,3.22-1.31,4.48,4.48,0,0,1,2.33.62,4,4,0,0,1,1.58,1.72,5.58,5.58,0,0,1,.54,2.5,5.48,5.48,0,0,1-.57,2.54,3.92,3.92,0,0,1-1.62,1.7,4.64,4.64,0,0,1-2.27.58,4.4,4.4,0,0,1-2.36-.64,4.09,4.09,0,0,1-1.57-1.74A5.26,5.26,0,0,1,123.06,67.5Zm-9,4.55V62.71h1.24v3.83h4.85V62.71h1.24V72h-1.24v-4.4h-4.85V72Z"/><path class="cls-3" d="M200.75,72V62.71h6.75v1.1H202v2.86h5.16v1.1H202v3.18h5.73V72Zm-7.33,0V62.71h1.24v8.23h4.6V72Zm-3.36,0V62.71h1.23V72Zm-5.8,0V63.81h-3.08v-1.1h7.4v1.1h-3.09V72Zm-12,0,3.61-4.86-3.18-4.47h1.47l1.7,2.4a13.19,13.19,0,0,1,.75,1.15,12.33,12.33,0,0,1,.74-1.06l1.88-2.48h1.34l-3.28,4.4L180.79,72h-1.53l-2.35-3.33c-.13-.19-.27-.4-.41-.62-.21.34-.36.57-.45.7L173.72,72Zm-7.72,0V62.71h6.75v1.1h-5.51v2.86h5.16v1.1h-5.16v3.18h5.73V72Zm-5.62,0V63.81h-3.08v-1.1h7.4v1.1h-3.09V72Zm-14.44,0V62.71h6.75v1.1H145.7v2.86h5.16v1.1H145.7v3.18h5.73V72Zm-10.93,0V62.71h1.86l2.21,6.61c.2.61.35,1.08.45,1.38q.16-.51.5-1.5l2.23-6.49h1.66V72h-1.19V64.23L138.54,72h-1.11l-2.7-7.95V72Zm-9.21-4.53a3.74,3.74,0,0,0,.91,2.66,3.17,3.17,0,0,0,4.57,0,4,4,0,0,0,.9-2.78,4.79,4.79,0,0,0-.39-2,3,3,0,0,0-1.13-1.32,3.07,3.07,0,0,0-1.66-.47,3.15,3.15,0,0,0-2.26.9A4,4,0,0,0,124.33,67.52Zm-1.27,0a5.07,5.07,0,0,1,1.25-3.64,4.25,4.25,0,0,1,3.22-1.31,4.48,4.48,0,0,1,2.33.62,4,4,0,0,1,1.58,1.72,5.58,5.58,0,0,1,.54,2.5,5.48,5.48,0,0,1-.57,2.54,3.92,3.92,0,0,1-1.62,1.7,4.64,4.64,0,0,1-2.27.58,4.4,4.4,0,0,1-2.36-.64,4.09,4.09,0,0,1-1.57-1.74A5.26,5.26,0,0,1,123.06,67.5Zm-9,4.55V62.71h1.24v3.83h4.85V62.71h1.24V72h-1.24v-4.4h-4.85V72Z"/><path class="cls-4" d="M317.42,19.86a25.48,25.48,0,0,0-5.4-8,23,23,0,0,0-7.68-5A25,25,0,0,0,295,5.14a27.17,27.17,0,0,0-7.83,1.1,23.72,23.72,0,0,0-6.36,3,23.35,23.35,0,0,0-4.9,4.38,25.68,25.68,0,0,0-3.48,5.28,26.94,26.94,0,0,0-2.07,5.69,24.16,24.16,0,0,0-.69,5.61,25.28,25.28,0,0,0,.69,5.75,27.45,27.45,0,0,0,2.08,5.78,25.85,25.85,0,0,0,3.47,5.33,24,24,0,0,0,4.89,4.42,23.28,23.28,0,0,0,6.32,3,26.31,26.31,0,0,0,7.75,1.11,25.78,25.78,0,0,0,7.37-1,22.91,22.91,0,0,0,6.24-2.93,23.57,23.57,0,0,0,5-4.53,27.06,27.06,0,0,0,3.69-5.82H306.75a14.27,14.27,0,0,1-3.4,3.21,14.07,14.07,0,0,1-4,1.83,15.78,15.78,0,0,1-4.28.59A16.33,16.33,0,0,1,283.37,42a16.78,16.78,0,0,1-4.76-11.76,16.24,16.24,0,0,1,.77-5,16.55,16.55,0,0,1,5.68-8.08,16,16,0,0,1,4.54-2.42,16.88,16.88,0,0,1,5.43-.88,15.12,15.12,0,0,1,5.18.87,15,15,0,0,1,4,2.21,16.73,16.73,0,0,1,3,2.93ZM267.1,6h-9.82L246.09,31.77,233.33,6H222.47l18.59,36.12-5.69,12.3h9.82ZM185.75,54.41h9V33.21l15.05,21.2H220.5L202.24,29.81,220.5,6H209.77L194.72,27V6h-9Zm-18.13,0h9V6h-9Zm-59.09,0h9V18.16l12.24,36.25h7.59l12.24-36.25V54.41h9V6H146.36L133.53,43,120.7,6H108.53Zm-32-7.53A16.27,16.27,0,0,1,61.31,36.72,16.91,16.91,0,0,1,60,30.27a16.6,16.6,0,0,1,1.25-6.38A16.1,16.1,0,0,1,70,15.14a17.37,17.37,0,0,1,13.18,0,16.11,16.11,0,0,1,8.71,8.75,16.6,16.6,0,0,1,1.25,6.38,17,17,0,0,1-1.24,6.4A16.56,16.56,0,0,1,88.45,42a16.08,16.08,0,0,1-5.27,3.59A16.77,16.77,0,0,1,76.53,46.89ZM76.6,5.14a26.33,26.33,0,0,0-8.21,1.29A25,25,0,0,0,55.9,15.5a25.06,25.06,0,0,0-3.56,6.95,25.92,25.92,0,0,0-1.27,8,25.41,25.41,0,0,0,1.28,8,24.42,24.42,0,0,0,3.57,6.9,24.82,24.82,0,0,0,5.48,5.42,25.47,25.47,0,0,0,7,3.54,27.08,27.08,0,0,0,16.36,0,25.07,25.07,0,0,0,12.51-9,24.66,24.66,0,0,0,3.56-6.9,25.42,25.42,0,0,0,1.28-8,25.91,25.91,0,0,0-1.27-8A24.77,24.77,0,0,0,97.3,15.5,25.07,25.07,0,0,0,91.83,10a25.58,25.58,0,0,0-7-3.59A26.32,26.32,0,0,0,76.6,5.14ZM16.72,45.71v-31h3.93c.83,0,1.83,0,3,.1a24.63,24.63,0,0,1,3.73.59,16.31,16.31,0,0,1,3.88,1.45,12.29,12.29,0,0,1,3.47,2.74A12.73,12.73,0,0,1,37.22,24a20.09,20.09,0,0,1,1,6.49,18.85,18.85,0,0,1-.93,6.22,11.91,11.91,0,0,1-5.77,6.9A15.94,15.94,0,0,1,27.71,45a23.38,23.38,0,0,1-3.64.59c-1.15.09-2.14.12-3,.11Zm-9,8.7H21.37a37,37,0,0,0,9.14-1.06,23.7,23.7,0,0,0,6.68-2.79,19.67,19.67,0,0,0,4.61-3.95,20.32,20.32,0,0,0,2.91-4.56,24.53,24.53,0,0,0,1.61-4.58A29.8,29.8,0,0,0,47,33.42a29.46,29.46,0,0,0,.14-3,32.42,32.42,0,0,0-.38-5.08,26.78,26.78,0,0,0-1.41-5.45,20.84,20.84,0,0,0-2.86-5.24,18.82,18.82,0,0,0-4.71-4.45,23,23,0,0,0-7-3.1A37,37,0,0,0,21.17,6H7.75Z"/><path class="cls-5" d="M317.42,19.86a25.48,25.48,0,0,0-5.4-8,23,23,0,0,0-7.68-5A25,25,0,0,0,295,5.14a27.17,27.17,0,0,0-7.83,1.1,23.72,23.72,0,0,0-6.36,3,23.35,23.35,0,0,0-4.9,4.38,25.68,25.68,0,0,0-3.48,5.28,26.94,26.94,0,0,0-2.07,5.69,24.16,24.16,0,0,0-.69,5.61,25.28,25.28,0,0,0,.69,5.75,27.45,27.45,0,0,0,2.08,5.78,25.85,25.85,0,0,0,3.47,5.33,24,24,0,0,0,4.89,4.42,23.28,23.28,0,0,0,6.32,3,26.31,26.31,0,0,0,7.75,1.11,25.78,25.78,0,0,0,7.37-1,22.91,22.91,0,0,0,6.24-2.93,23.57,23.57,0,0,0,5-4.53,27.06,27.06,0,0,0,3.69-5.82H306.75a14.27,14.27,0,0,1-3.4,3.21,14.07,14.07,0,0,1-4,1.83,15.78,15.78,0,0,1-4.28.59A16.33,16.33,0,0,1,283.37,42a16.78,16.78,0,0,1-4.76-11.76,16.24,16.24,0,0,1,.77-5,16.55,16.55,0,0,1,5.68-8.08,16,16,0,0,1,4.54-2.42,16.88,16.88,0,0,1,5.43-.88,15.12,15.12,0,0,1,5.18.87,15,15,0,0,1,4,2.21,16.73,16.73,0,0,1,3,2.93ZM267.1,6h-9.82L246.09,31.77,233.33,6H222.47l18.59,36.12-5.69,12.3h9.82ZM185.75,54.41h9V33.21l15.05,21.2H220.5L202.24,29.81,220.5,6H209.77L194.72,27V6h-9Zm-18.13,0h9V6h-9Zm-59.09,0h9V18.16l12.24,36.25h7.59l12.24-36.25V54.41h9V6H146.36L133.53,43,120.7,6H108.53Zm-32-7.53A16.27,16.27,0,0,1,61.31,36.72,16.91,16.91,0,0,1,60,30.27a16.6,16.6,0,0,1,1.25-6.38A16.1,16.1,0,0,1,70,15.14a17.37,17.37,0,0,1,13.18,0,16.11,16.11,0,0,1,8.71,8.75,16.6,16.6,0,0,1,1.25,6.38,17,17,0,0,1-1.24,6.4A16.56,16.56,0,0,1,88.45,42a16.08,16.08,0,0,1-5.27,3.59A16.77,16.77,0,0,1,76.53,46.89ZM76.6,5.14a26.33,26.33,0,0,0-8.21,1.29A25,25,0,0,0,55.9,15.5a25.06,25.06,0,0,0-3.56,6.95,25.92,25.92,0,0,0-1.27,8,25.41,25.41,0,0,0,1.28,8,24.42,24.42,0,0,0,3.57,6.9,24.82,24.82,0,0,0,5.48,5.42,25.47,25.47,0,0,0,7,3.54,27.08,27.08,0,0,0,16.36,0,25.07,25.07,0,0,0,12.51-9,24.66,24.66,0,0,0,3.56-6.9,25.42,25.42,0,0,0,1.28-8,25.91,25.91,0,0,0-1.27-8A24.77,24.77,0,0,0,97.3,15.5,25.07,25.07,0,0,0,91.83,10a25.58,25.58,0,0,0-7-3.59A26.32,26.32,0,0,0,76.6,5.14ZM16.72,45.71v-31h3.93c.83,0,1.83,0,3,.1a24.63,24.63,0,0,1,3.73.59,16.31,16.31,0,0,1,3.88,1.45,12.29,12.29,0,0,1,3.47,2.74A12.73,12.73,0,0,1,37.22,24a20.09,20.09,0,0,1,1,6.49,18.85,18.85,0,0,1-.93,6.22,11.91,11.91,0,0,1-5.77,6.9A15.94,15.94,0,0,1,27.71,45a23.38,23.38,0,0,1-3.64.59c-1.15.09-2.14.12-3,.11Zm-9,8.7H21.37a37,37,0,0,0,9.14-1.06,23.7,23.7,0,0,0,6.68-2.79,19.67,19.67,0,0,0,4.61-3.95,20.32,20.32,0,0,0,2.91-4.56,24.53,24.53,0,0,0,1.61-4.58A29.8,29.8,0,0,0,47,33.42a29.46,29.46,0,0,0,.14-3,32.42,32.42,0,0,0-.38-5.08,26.78,26.78,0,0,0-1.41-5.45,20.84,20.84,0,0,0-2.86-5.24,18.82,18.82,0,0,0-4.71-4.45,23,23,0,0,0-7-3.1A37,37,0,0,0,21.17,6H7.75Z"/><g class="cls-6"><path class="cls-7" d="M28.14,10.64a19.74,19.74,0,0,0-20.09,0s8.93,8.43,20.09,0"/><path class="cls-8" d="M30.78,9.31A12.48,12.48,0,0,1,21.22,1S29,.65,30.78,9.31"/><path class="cls-7" d="M326.64,47.69A16.81,16.81,0,0,1,315.23,35s10.42.86,11.41,12.73"/><path class="cls-7" d="M284.08,1.91c2.62.71,4.29,3,3.73,5s-3.14,3.14-5.76,2.42-4.29-3-3.73-5,3.14-3.14,5.76-2.43"/><path class="cls-9" d="M287.5,6.44l-8.65-2.36c.7-1.6,2.89-2.41,5.14-1.8s3.72,2.42,3.51,4.16M282.15,9c-2.24-.61-3.72-2.42-3.51-4.16l8.65,2.36C286.59,8.79,284.4,9.6,282.15,9ZM278,4.23c-.62,2.26,1.18,4.72,4,5.49s5.62-.44,6.23-2.7-1.18-4.72-4-5.49S278.57,2,278,4.23Z"/><path class="cls-7" d="M85.07,25.85c1.94,1.91,2.29,4.69.79,6.2s-4.28,1.2-6.21-.71-2.29-4.68-.79-6.2,4.28-1.2,6.21.71"/><path class="cls-9" d="M85.83,31.48l-6.38-6.3c1.4-1.05,3.7-.68,5.36,1s2.06,3.93,1,5.35m-5.9-.4c-1.66-1.63-2.06-3.94-1-5.35L85.28,32C83.89,33.08,81.58,32.71,79.93,31.07Zm-1.34-6.2c-1.64,1.67-1.29,4.69.79,6.75s5.11,2.37,6.76.71,1.29-4.69-.79-6.75S80.23,23.21,78.59,24.87Z"/><path class="cls-7" d="M259.68,6.85c-.16-1.7.8-3.18,2.13-3.3s2.54,1.16,2.7,2.86-.8,3.18-2.13,3.3-2.54-1.15-2.7-2.86"/><path class="cls-9" d="M261.6,3.84l.52,5.61a2.68,2.68,0,0,1-2.19-2.63,2.68,2.68,0,0,1,1.68-3m2.67,2.59a2.68,2.68,0,0,1-1.67,3l-.52-5.61A2.67,2.67,0,0,1,264.27,6.43ZM262.4,10c1.46-.13,2.52-1.73,2.35-3.57s-1.5-3.21-3-3.08S259.27,5,259.44,6.88,260.94,10.09,262.4,10Z"/><path class="cls-7" d="M253.59.84c1.35-1,3.11-1,3.93,0s.39,2.76-1,3.81-3.11,1-3.93,0-.39-2.77,1-3.81"/><path class="cls-9" d="M257.16.84,252.7,4.29a2.67,2.67,0,0,1,1-3.26,2.68,2.68,0,0,1,3.42-.19m-.74,3.64a2.68,2.68,0,0,1-3.42.19l4.46-3.45A2.68,2.68,0,0,1,256.41,4.49Zm-4,.32c.9,1.16,2.82,1.19,4.27.07s1.91-3,1-4.15-2.82-1.2-4.27-.07S251.54,3.64,252.43,4.8Z"/><path class="cls-10" d="M217.35,39.44s-3-7.36-13.65-9.78c12.22-7.13,15.21-17.93,15.21-17.93a30.07,30.07,0,0,0-23.19-.12c4-9.42.3-15.9.3-15.9C159.6,8.47,168.92,32.9,170,35.36h0l.05.1,0,.1h0c1.27,2.3,14.78,24.74,47.29,3.88"/><path class="cls-11" d="M207.37,39.29s-2.51-6.18-11.47-8.22c10.27-6,12.78-15.06,12.78-15.06a25.26,25.26,0,0,0-19.49-.1c3.38-7.92.25-13.36.25-13.36-30.59,10.73-22.76,31.25-21.88,33.31h0l0,.08,0,.08h0c1.07,1.93,12.42,20.78,39.73,3.26"/><path class="cls-12" d="M169,35.38s14-16.57,29.85-14.56c0,0-4.15,12.68-29.85,14.56"/><path class="cls-13" d="M174.11,32.94s9.23-10.93,19.68-9.59c0,0-2.74,8.36-19.68,9.59"/><path class="cls-12" d="M168.32,29.81s-.86-14.31,14.5-19.54c0,0,0,14.31-14.5,19.54"/><path class="cls-13" d="M170.21,27.25s-.64-10.57,10.71-14.43a16.07,16.07,0,0,1-10.71,14.43"/><path class="cls-12" d="M173,39.45s10.75,9.49,24.32.6c0,0-11.31-8.77-24.32-.6"/><path class="cls-13" d="M176.71,39.52s7.52,6.62,17,.44a15.24,15.24,0,0,0-17-.44"/><path class="cls-10" d="M304.21,12.28a5,5,0,0,0-.36-4.47,8.9,8.9,0,0,0,6.28,0,8,8,0,0,0-4-4.75A5,5,0,0,0,309.45.39c-8.88-5.23-12.26.88-12.58,1.52h0V2h0c-.25.66-2.5,7.28,7.36,10.32"/><path class="cls-11" d="M302.52,10.22a4.23,4.23,0,0,0-.3-3.76,7.48,7.48,0,0,0,5.28,0,6.75,6.75,0,0,0-3.34-4A4.17,4.17,0,0,0,306.93.23c-7.46-4.39-10.3.74-10.57,1.28h0v0h0c-.21.55-2.1,6.12,6.18,8.67"/><path class="cls-12" d="M296.7,1.71s5.79,0,8.11,3.58c0,0-3.3,1.34-8.11-3.58"/><path class="cls-12" d="M296.57,3.24a5.38,5.38,0,0,0,4.07,5.07,5.81,5.81,0,0,0-4.07-5.07"/><path class="cls-13" d="M297.19,4A3.76,3.76,0,0,0,300,7.54,4.07,4.07,0,0,0,297.19,4"/><path class="cls-10" d="M245.3,53.22a5,5,0,0,0-.36-4.47,8.91,8.91,0,0,0,6.28,0,8,8,0,0,0-4-4.75,5,5,0,0,0,3.3-2.68c-8.88-5.23-12.26.88-12.58,1.52h0v.05h0c-.25.66-2.5,7.28,7.36,10.32"/><path class="cls-11" d="M243.61,51.16a4.23,4.23,0,0,0-.3-3.76,7.47,7.47,0,0,0,5.28,0,6.75,6.75,0,0,0-3.34-4A4.16,4.16,0,0,0,248,41.17c-7.46-4.39-10.3.74-10.57,1.28h0v0h0c-.21.55-2.1,6.12,6.18,8.67"/><path class="cls-12" d="M237.79,42.65s5.79,0,8.12,3.58c0,0-3.3,1.34-8.12-3.58"/><path class="cls-13" d="M239.17,43.28s3.82,0,5.35,2.36c0,0-2.18.88-5.35-2.36"/><path class="cls-12" d="M238.81,41.55a5.38,5.38,0,0,1,6.48-.41,5.81,5.81,0,0,1-6.48.41"/><path class="cls-13" d="M239.66,41.5a4,4,0,0,1,4.79-.3,4.3,4.3,0,0,1-4.79.3"/><path class="cls-12" d="M237.65,44.18a5.38,5.38,0,0,0,4.07,5.07,5.81,5.81,0,0,0-4.07-5.07"/><path class="cls-13" d="M238.28,44.94a3.76,3.76,0,0,0,2.84,3.54,4.06,4.06,0,0,0-2.84-3.54"/><path class="cls-14" d="M265.12,69.33S262.76,46.73,281.86,51,297,69.78,295.68,75.83a13.09,13.09,0,0,0,2.78,10.61A26.11,26.11,0,0,0,284,93.63c-6.77,6.53-20.41,4.59-25.2-2.12S253,77.36,265.12,69.33"/><path class="cls-15" d="M266.24,70.7s-2.12-20.28,15-16.48S294.8,71.1,293.65,76.53a11.75,11.75,0,0,0,2.49,9.52,23.39,23.39,0,0,0-13,6.44c-6.07,5.85-18.31,4.11-22.61-1.9s-5.19-12.7,5.67-19.89"/><path class="cls-16" d="M263.82,86.86l0-.06a20.32,20.32,0,0,0,3.44-4.66,18.91,18.91,0,0,0,1.77,7.2A4,4,0,0,1,265,92c-.45-.51-2.62-3.17-1.17-5.17m-2.94-.59c0-1.33.65-3.6,4-6.88a4.74,4.74,0,0,0,2.37,1.71c-.44.9-2.56,5-5.78,6.91A2.9,2.9,0,0,1,260.88,86.27Zm-1-5.31a5,5,0,0,1,4-3.82,4.57,4.57,0,0,0,.57,1.77l-.06,0a21.13,21.13,0,0,0-2.31,2.65A4.65,4.65,0,0,1,259.92,81Zm9.65-8.43a4.68,4.68,0,0,0,1.52.69l.24.18a4.18,4.18,0,1,1-1.76-.87Zm0-.7a4.17,4.17,0,1,1,1.75.87A4.69,4.69,0,0,0,269.8,72Zm.94-12.71,2,1.24a7.83,7.83,0,0,0-.18,3.56,4.81,4.81,0,0,0-1.63.24A4.55,4.55,0,0,1,270.5,59.13Zm6.93-3c.41.33,1.91,1.79,1.59,5.41a12.43,12.43,0,0,0-3.92,3.25l0,0a4.67,4.67,0,0,0-2.13-.89C272.74,63.12,271.9,58.37,277.43,56.16Zm13.24,5.11c-.8,1.09-3.69,4.77-6.89,5.9a23.09,23.09,0,0,0-6.94.39,4.68,4.68,0,0,0-1.35-2.35S280.73,58.17,290.67,61.27Zm2.58,5.4a4.19,4.19,0,0,1-2.37,2.19,26.57,26.57,0,0,0-6-1.56,15.34,15.34,0,0,0,4-3A9.65,9.65,0,0,1,293.25,66.67Zm-11.12,7.47A64.15,64.15,0,0,0,276.33,71a4.73,4.73,0,0,0,.61-2.91,22.43,22.43,0,0,1,6.72-.39.3.3,0,0,0,.19,0,25,25,0,0,1,8.74,2.5C289.65,74.75,282.32,74.15,282.14,74.14Zm10,2.2a3.81,3.81,0,0,1-4.89,1.26s-2.74-2-4.09-2.87a16.23,16.23,0,0,0,5.58-.89A6.2,6.2,0,0,1,292.09,76.34Zm0,7.85c-4.65,1.4-13.44-2.81-18.8-6.61a4.73,4.73,0,0,0-1.18-4.22,4.72,4.72,0,0,0,3.78-1.67l.16-.2C277.35,72.12,289.54,77.93,292.06,84.19Zm-5.57,3.86c-.34.14-1.82.54-3.86-1.71A29.93,29.93,0,0,0,281,82.76a28.08,28.08,0,0,0,5,1.75C286.34,85.1,287.14,86.74,286.49,88.05Zm-3.63,2.54c-1.5-.43-8.52-2.76-11.51-10.12a4.8,4.8,0,0,0,.9-.82,4.73,4.73,0,0,0,.85-1.49c2.64,1.86,7.07,4.23,7.07,4.24S282.9,87.29,282.86,90.59ZM278,93c-.41,0-1.72-.06-3.37-1.71a13.05,13.05,0,0,0-.08-5,18.59,18.59,0,0,0,3.67,2.88A5.91,5.91,0,0,1,278,93ZM267.82,81.25a4.75,4.75,0,0,0,3.05-.49,17,17,0,0,0,2.78,4.56h0a11.8,11.8,0,0,1,.39,5.78.28.28,0,0,0-.06.32,14.72,14.72,0,0,1-.8,2.79A17.93,17.93,0,0,1,267.82,81.25Zm-3.08,11.33A5,5,0,0,0,269.38,90a12.13,12.13,0,0,0,4,5.13,8.67,8.67,0,0,0,1.06-3.21c2.09,1.94,3.89,1.55,3.89,1.55a6.55,6.55,0,0,0,.49-4,10,10,0,0,0,4.45,1.75,7.79,7.79,0,0,0-.3-3.78c2.19,1.89,3.9,1,3.9,1a4.67,4.67,0,0,0-.19-3.8c3.93,1,6.07-.14,6.07-.14a13.93,13.93,0,0,0-4.55-6,4.58,4.58,0,0,0,4.5-2.13,6.93,6.93,0,0,0-3.27-2.83c2.39-.75,3.89-3.5,3.89-3.5a9.46,9.46,0,0,0-1.78-.88,5.43,5.43,0,0,0,2.33-2.62,10.82,10.82,0,0,0-4.61-2.72A28.83,28.83,0,0,0,291.56,61s-6.44-2.54-12,.3c.26-4.41-2.16-5.72-2.16-5.72s-3.91,1.46-4.72,4.28l-2.41-1.46s-2.39,3.21-.11,6a4.67,4.67,0,0,0-1.59,1.22,4.72,4.72,0,0,0,.17,6.27,4.71,4.71,0,0,0-4.89,4.71,5.84,5.84,0,0,0-4.61,4.58s1.63,1.23,2.48,1a7.4,7.4,0,0,0-1.47,4.17,3.58,3.58,0,0,0,1,2.4,3.75,3.75,0,0,0,1.5-1C262.27,90,264.74,92.58,264.74,92.58Z"/><path class="cls-17" d="M320.82,26.91a11.42,11.42,0,0,1-9.15-.46c1.35-1.9,5-2,5-2A14.54,14.54,0,0,0,305,25.1c5.82-5.6,3.43-15.68,3.43-15.68a11.42,11.42,0,0,1-3.72,8.37c-1.29-1.94-.1-5.38-.1-5.38A14.55,14.55,0,0,0,301,23.86c-3.2-7.62-13.78-8.75-13.78-8.75a11.43,11.43,0,0,1,6.66,6.29c-2.26.57-5.11-1.7-5.11-1.7a14.55,14.55,0,0,0,10,7.21c-8.46.32-13.06,10.22-13.06,10.22a11.42,11.42,0,0,1,8.11-4.26c-.19,2.32-3.26,4.29-3.26,4.29a14.6,14.6,0,0,0,10.74-8.43C298.57,37.78,308.41,45,308.41,45a11.42,11.42,0,0,1-2.58-8.79c2.24.64,3.56,4,3.56,4a14.55,14.55,0,0,0-4.79-11.09c7.4,3.8,16.23-2.26,16.23-2.26"/><path class="cls-13" d="M318.83,35.35A11.42,11.42,0,0,1,311,30.57c2.09-1,5.35.6,5.35.6a14.54,14.54,0,0,0-10.6-5C313.56,24,316.29,14,316.29,14A11.43,11.43,0,0,1,309,19.62c-.21-2.33,2.49-4.78,2.49-4.78a14.56,14.56,0,0,0-8.58,8.36C303.76,15,295,8.93,295,8.93a11.42,11.42,0,0,1,2.84,8.71c-2.26-.58-3.68-3.93-3.68-3.93a14.54,14.54,0,0,0,5.29,11.1c-7.58-3.76-16.36,2.72-16.36,2.72a11.41,11.41,0,0,1,9.16.14c-1.28,2-4.91,2.2-4.91,2.2a14.62,14.62,0,0,0,13.47-2.26c-6.73,6.64-1.55,17.7-1.55,17.7a11.41,11.41,0,0,1,1.93-9c1.66,1.64,1.2,5.25,1.2,5.25a14.56,14.56,0,0,0,1.1-12c4.68,6.87,15.34,5.78,15.34,5.78"/><path class="cls-18" d="M304.45,25.83a2.76,2.76,0,1,1-2.76-2.76,2.76,2.76,0,0,1,2.76,2.76"/><path class="cls-19" d="M140.3-16.25A10.11,10.11,0,0,1,141.71-13a10.72,10.72,0,0,1,3.3-1.45,5.53,5.53,0,0,1,6.6,4,10.47,10.47,0,0,1,.08,3.65,8.75,8.75,0,0,1,3.65-.08,5.46,5.46,0,0,1,4.49,6.28,9.8,9.8,0,0,1-1.3,3.37A12,12,0,0,1,162,4.13a5.56,5.56,0,0,1,1.69,7.56,9.14,9.14,0,0,1-2.49,2.59,10.79,10.79,0,0,1,2.69,2.51,5.49,5.49,0,0,1-1.32,7.64,10.12,10.12,0,0,1-3.26,1.51,11.17,11.17,0,0,1,1.45,3.3,5.44,5.44,0,0,1-4.1,6.54,8.93,8.93,0,0,1-3.61.13,8.83,8.83,0,0,1,.07,3.65A5.46,5.46,0,0,1,146.86,44a9.78,9.78,0,0,1-3.37-1.3,10.62,10.62,0,0,1-1.3,3.37,5.51,5.51,0,0,1-7.57,1.8A9.41,9.41,0,0,1,132,45.42a10.79,10.79,0,0,1-2.55,2.64,5.43,5.43,0,0,1-7.59-1.27,10.59,10.59,0,0,1-1.56-3.32A9.43,9.43,0,0,1,117.07,45a5.46,5.46,0,0,1-6.54-4.09,10.09,10.09,0,0,1-.18-3.67,10.75,10.75,0,0,1-3.61.14,5.47,5.47,0,0,1-4.49-6.28,10.9,10.9,0,0,1,1.26-3.43,8.94,8.94,0,0,1-3.37-1.3,5.44,5.44,0,0,1-1.75-7.52,11.23,11.23,0,0,1,2.44-2.65,9.81,9.81,0,0,1-2.55-2.43,5.43,5.43,0,0,1,1.27-7.59,10.7,10.7,0,0,1,3.31-1.56,9.47,9.47,0,0,1-1.51-3.26,5.61,5.61,0,0,1,4.11-6.64,12.93,12.93,0,0,1,3.65-.08A9.79,9.79,0,0,1,109-9a5.45,5.45,0,0,1,6.28-4.49,8.76,8.76,0,0,1,3.43,1.26A10.5,10.5,0,0,1,120-15.63a5.53,5.53,0,0,1,7.56-1.7,11.21,11.21,0,0,1,2.65,2.45,10,10,0,0,1,2.49-2.59,5.49,5.49,0,0,1,7.65,1.22"/><path class="cls-20" d="M105.47-5.29a5.61,5.61,0,0,0-4.11,6.64c1.54,6.58,11.42,11.18,12.9,17.81S109,34.25,110.53,40.89A5.46,5.46,0,0,0,117.07,45c6.58-1.54,11.24-11.46,17.86-12.94s15.15,5.27,21.73,3.73a5.44,5.44,0,0,0,4.1-6.54c-1.54-6.58-11.41-11.28-12.94-17.87s5.27-15.15,3.78-21.78a5.53,5.53,0,0,0-6.6-4c-6.58,1.54-11.29,11.4-17.87,12.94s-15-5.25-21.68-3.77m22-12a5.53,5.53,0,0,0-7.56,1.7c-3.55,5.79.07,16-3.52,21.77s-14.45,7-18,12.7a5.44,5.44,0,0,0,1.75,7.52c5.73,3.59,16-.07,21.77,3.52s7,14.45,12.7,18a5.51,5.51,0,0,0,7.57-1.8c3.59-5.73-.13-16,3.46-21.73s14.45-7,18-12.7A5.56,5.56,0,0,0,162,4.13c-5.83-3.61-16.1.11-21.83-3.48S133.24-13.74,127.51-17.33Zm12.79,1.08c3.89,5.45.82,16,4.75,21.46S160,11.28,163.9,16.78a5.49,5.49,0,0,1-1.32,7.64c-5.51,3.93-16,.86-21.52,4.8S135,44.13,129.48,48.06a5.43,5.43,0,0,1-7.59-1.27c-3.93-5.51-.86-16-4.84-21.58s-14.87-6-18.76-11.46a5.43,5.43,0,0,1,1.27-7.59c5.51-3.93,16-1,21.49-5s6.09-14.75,11.6-18.68A5.49,5.49,0,0,1,140.3-16.25Z"/><path class="cls-21" d="M138.07-7.67a7.3,7.3,0,0,1,1,2.33,7.7,7.7,0,0,1,2.37-1,4,4,0,0,1,4.75,2.92,7.57,7.57,0,0,1,.05,2.63A6.31,6.31,0,0,1,148.9-.9a3.93,3.93,0,0,1,3.23,4.53,7.08,7.08,0,0,1-.94,2.43,8.57,8.57,0,0,1,2.5.95,4,4,0,0,1,1.22,5.45,6.64,6.64,0,0,1-1.79,1.86,7.81,7.81,0,0,1,1.94,1.8,4,4,0,0,1-1,5.5,7.25,7.25,0,0,1-2.35,1.09,8,8,0,0,1,1,2.38,3.91,3.91,0,0,1-2.95,4.71,6.49,6.49,0,0,1-2.6.1,6.32,6.32,0,0,1,.06,2.63,3.93,3.93,0,0,1-4.53,3.23,7.06,7.06,0,0,1-2.42-.93,7.68,7.68,0,0,1-.94,2.42A4,4,0,0,1,134,38.53a6.76,6.76,0,0,1-1.86-1.79,7.71,7.71,0,0,1-1.83,1.9,3.91,3.91,0,0,1-5.47-.91,7.73,7.73,0,0,1-1.12-2.39,6.82,6.82,0,0,1-2.35,1.09,3.93,3.93,0,0,1-4.71-2.95,7.24,7.24,0,0,1-.13-2.64,7.65,7.65,0,0,1-2.59.1,3.93,3.93,0,0,1-3.23-4.53,7.93,7.93,0,0,1,.9-2.47,6.44,6.44,0,0,1-2.43-.94,3.91,3.91,0,0,1-1.26-5.41,8,8,0,0,1,1.76-1.91,7.15,7.15,0,0,1-1.83-1.75,3.91,3.91,0,0,1,.91-5.47,7.68,7.68,0,0,1,2.39-1.12A6.8,6.8,0,0,1,110,5a4,4,0,0,1,3-4.78,9.23,9.23,0,0,1,2.63-.06,7,7,0,0,1-.1-2.6A3.93,3.93,0,0,1,120-5.67a6.37,6.37,0,0,1,2.47.91,7.54,7.54,0,0,1,.91-2.47,4,4,0,0,1,5.44-1.22,8,8,0,0,1,1.91,1.76,7.19,7.19,0,0,1,1.79-1.86,4,4,0,0,1,5.51.88"/><path class="cls-22" d="M123.07,8.32a1.79,1.79,0,0,0-1.34,2.13c.51,2.17,3.72,3.66,4.23,5.83s-1.74,4.95-1.26,7.08a1.82,1.82,0,0,0,2.17,1.31c2.13-.48,3.65-3.72,5.79-4.2s5,1.74,7.08,1.26A1.76,1.76,0,0,0,141,19.55c-.48-2.13-3.72-3.65-4.2-5.78s1.74-5,1.25-7.08A1.79,1.79,0,0,0,136,5.34c-2.17.51-3.66,3.72-5.83,4.23s-4.95-1.73-7.08-1.25m3.18-2.66a1.76,1.76,0,0,0-2,1.45c-.36,2.14,2,4.81,1.68,7S122.41,18,122,20.18a1.76,1.76,0,0,0,1.45,2c2.21.37,4.81-2,7-1.68s3.9,3.46,6.08,3.86a1.76,1.76,0,0,0,2-1.45c.37-2.22-2-4.81-1.68-7s3.54-3.89,3.86-6.08a1.76,1.76,0,0,0-1.45-2c-2.17-.4-4.81,2-7,1.68S128.43,6,126.24,5.65Zm4-1.27a1.78,1.78,0,0,0-2.45.58c-1.15,1.86.08,5.21-1.11,7.1s-4.7,2.26-5.85,4.11a1.82,1.82,0,0,0,.53,2.48c1.86,1.14,5.22-.08,7.1,1.11s2.25,4.7,4.11,5.85a1.77,1.77,0,0,0,2.48-.53c1.15-1.86,0-5.25,1.11-7.11s4.7-2.25,5.89-4.14a1.79,1.79,0,0,0-.58-2.45c-1.86-1.15-5.25,0-7.1-1.11S132.1,5.57,130.21,4.38Zm4.15.35a1.76,1.76,0,0,0-2.44-.41c-1.81,1.3-2,4.87-3.75,6.13s-5.25.3-7,1.56a1.77,1.77,0,0,0-.45,2.47c1.29,1.81,4.87,2,6.13,3.76s.3,5.25,1.56,7a1.78,1.78,0,0,0,2.51.42c1.77-1.26,1.95-4.84,3.76-6.13s5.21-.27,7-1.56a1.77,1.77,0,0,0,.38-2.48c-1.26-1.77-4.84-1.95-6.13-3.75S135.66,6.54,134.37,4.73Zm2.44-8.25a6.32,6.32,0,0,1,.89,2,4.54,4.54,0,0,1,1.93-.86A3.18,3.18,0,0,1,143.47,0a6.31,6.31,0,0,1,.07,2.1,5.8,5.8,0,0,1,2.13,0,3.14,3.14,0,0,1,2.62,3.66,5.77,5.77,0,0,1-.72,2,6.29,6.29,0,0,1,2,.74,3.19,3.19,0,0,1,1,4.42,5.3,5.3,0,0,1-1.43,1.55,5.83,5.83,0,0,1,1.58,1.48,3.23,3.23,0,0,1-.78,4.46,5.72,5.72,0,0,1-1.93.86,6.87,6.87,0,0,1,.89,2,3.31,3.31,0,0,1-2.43,3.89,5.5,5.5,0,0,1-2.13,0,7,7,0,0,1,.1,2.14,3.29,3.29,0,0,1-3.71,2.65,7.38,7.38,0,0,1-2-.76,5.52,5.52,0,0,1-.71,2,3.24,3.24,0,0,1-4.42,1,5.56,5.56,0,0,1-1.58-1.48,5.79,5.79,0,0,1-1.48,1.58,3.19,3.19,0,0,1-4.43-.74,5.84,5.84,0,0,1-.89-2,5.59,5.59,0,0,1-2,.89,3.24,3.24,0,0,1-3.85-2.39,6.49,6.49,0,0,1,0-2.13,6,6,0,0,1-2.17.05,3.23,3.23,0,0,1-2.62-3.66,6,6,0,0,1,.75-2,6.43,6.43,0,0,1-2-.71,3.22,3.22,0,0,1-1-4.42,4.73,4.73,0,0,1,1.48-1.57,6.42,6.42,0,0,1-1.58-1.48,3.14,3.14,0,0,1,.77-4.39,5.77,5.77,0,0,1,1.94-.93A5.35,5.35,0,0,1,114,6.84,3.19,3.19,0,0,1,116.4,3a6.24,6.24,0,0,1,2.1-.07,6.81,6.81,0,0,1,0-2.13,3.2,3.2,0,0,1,3.7-2.65,6.69,6.69,0,0,1,2,.75,6.23,6.23,0,0,1,.75-2,3.26,3.26,0,0,1,4.46-1,6.51,6.51,0,0,1,1.54,1.44,5.66,5.66,0,0,1,1.47-1.5A3.18,3.18,0,0,1,136.81-3.52Z"/><path class="cls-23" d="M113,.22A4,4,0,0,0,110,5c1.11,4.74,8.23,8.05,9.29,12.82s-3.82,10.87-2.68,15.65a3.93,3.93,0,0,0,4.71,2.95c4.74-1.11,8.09-8.26,12.87-9.32s10.91,3.79,15.65,2.68a3.91,3.91,0,0,0,2.95-4.71c-1.11-4.74-8.21-8.13-9.32-12.87s3.79-10.91,2.73-15.68a4,4,0,0,0-4.75-2.92c-4.74,1.11-8.12,8.21-12.87,9.32S117.76-.85,113,.22M120-5.67a3.93,3.93,0,0,0-4.53,3.23c-.8,4.8,4.46,10.61,3.66,15.41s-7.7,8.63-8.5,13.43a3.93,3.93,0,0,0,3.23,4.53c4.8.8,10.65-4.49,15.45-3.69s8.63,7.7,13.43,8.5a3.93,3.93,0,0,0,4.53-3.23c.8-4.8-4.49-10.66-3.69-15.46s7.7-8.63,8.5-13.43A3.93,3.93,0,0,0,148.9-.9c-4.8-.8-10.66,4.49-15.46,3.69S124.84-4.87,120-5.67Zm8.82-2.78a4,4,0,0,0-5.44,1.22c-2.55,4.17,0,11.55-2.54,15.67s-10.4,5-13,9.15A3.91,3.91,0,0,0,109.15,23c4.13,2.59,11.55,0,15.67,2.54s5,10.4,9.15,13a4,4,0,0,0,5.45-1.29c2.59-4.12-.09-11.52,2.49-15.64s10.4-5,13-9.15A4,4,0,0,0,153.69,7c-4.2-2.6-11.59.08-15.72-2.51S133-5.86,128.86-8.45Zm9.21.78c2.8,3.92.59,11.49,3.42,15.45s10.74,4.37,13.57,8.33a4,4,0,0,1-1,5.5c-4,2.83-11.53.62-15.49,3.45s-4.37,10.74-8.33,13.57a3.91,3.91,0,0,1-5.47-.91c-2.83-4-.62-11.53-3.48-15.54s-10.7-4.33-13.51-8.25a3.91,3.91,0,0,1,.91-5.47c4-2.83,11.51-.74,15.48-3.57s4.39-10.62,8.35-13.45A4,4,0,0,1,138.07-7.67Z"/><path class="cls-24" d="M239.56,35.46a8,8,0,0,0,1.29-7.29,8.07,8.07,0,0,0,1.65-7.46c-1.4-4.49-6.85-6.78-12.18-5.12-4.39,1.37-7.32,5-7.43,8.73-1.64,3.6-.3,8.37,3.47,11.42,4.34,3.5,10.25,3.38,13.2-.28"/><path class="cls-25" d="M239.52,20a8.07,8.07,0,0,1-1.64,7.46,8,8,0,0,1-1.29,7.3,8.06,8.06,0,0,1-7.06,2.79c3.72,1.43,7.76.72,10-2.1a8,8,0,0,0,1.29-7.29,8.07,8.07,0,0,0,1.65-7.46c-1-3.22-4.1-5.3-7.74-5.61A7.9,7.9,0,0,1,239.52,20"/><path class="cls-25" d="M228.13,25.49a3.49,3.49,0,1,1,4.33-2.58,3.56,3.56,0,0,1-4.33,2.58"/><path class="cls-25" d="M226.83,31.75a3.49,3.49,0,1,1,4.33-2.58,3.56,3.56,0,0,1-4.33,2.58"/><path class="cls-25" d="M233.43,28.36a2,2,0,1,1,2.35-1.47,2,2,0,0,1-2.35,1.47"/><path class="cls-24" d="M279.69,32.45A4.59,4.59,0,0,0,276.31,35a4.62,4.62,0,0,0-3.6,2.49c-1.16,2.43.23,5.51,3.12,6.89a5.74,5.74,0,0,0,6.52-.77,5.65,5.65,0,0,0,3-6.15c-.46-3.16-3-5.41-5.65-5"/><path class="cls-25" d="M273.69,38.94a4.63,4.63,0,0,1,3.6-2.49,4.4,4.4,0,0,1,7.44-1,5,5,0,0,0-5-3A4.59,4.59,0,0,0,276.31,35a4.62,4.62,0,0,0-3.6,2.49,4.88,4.88,0,0,0,1.07,5.37,4.52,4.52,0,0,1-.09-3.93"/><path class="cls-25" d="M280.61,41.09a2,2,0,1,1-2.82-.6,2,2,0,0,1,2.82.6"/><path class="cls-25" d="M283.6,39a2,2,0,1,1-2.82-.6,2,2,0,0,1,2.82.6"/><path class="cls-25" d="M279.5,37.81a1.12,1.12,0,1,1-1.56-.3,1.13,1.13,0,0,1,1.56.3"/><path class="cls-13" d="M217.3,55.74a8.42,8.42,0,0,1,8.41-8.17,8.42,8.42,0,0,0-16.21,2.9h.26a8.42,8.42,0,0,1,7.54,5.27"/><path class="cls-13" d="M223.76,56.8a8.39,8.39,0,0,1,7.82,5.26,8.42,8.42,0,0,0-5.86-14.48,8.4,8.4,0,0,1-2,9.22"/><path class="cls-25" d="M217.3,55.74a8.41,8.41,0,0,1,.61,3.42,8.39,8.39,0,0,1,5.85-2.36,8.4,8.4,0,0,0,2-9.22,8.42,8.42,0,0,0-8.41,8.17"/><path class="cls-13" d="M214.52,58.45a8.43,8.43,0,0,1-5-7.71c0-.09,0-.17,0-.26a8.41,8.41,0,0,0-3.42,16.11,8.41,8.41,0,0,1,8.43-8.14"/><path class="cls-26" d="M214.52,58.45a8.37,8.37,0,0,1,3.4.72,8.41,8.41,0,0,1-.61-3.42,8.42,8.42,0,0,0-7.54-5.27h-.26c0,.09,0,.17,0,.26a8.43,8.43,0,0,0,5,7.71"/><path class="cls-27" d="M76.92-16.37c5,4.69,6.52,11,2.69,19.4,7.83-7.59,13.7-7.25,18.93-4.77-3,6.44-8.39,9.8-17.51,8.9,9.49,5,10.94,10.68,10.11,16.57-6.94-.83-11.72-5-13.58-13.88-1.93,10.65-6.91,13.84-12.7,15-1.27-7,1.22-12.88,9.08-17.4C63.33,8.89,58.84,5.14,56,0c6.14-3.35,12.51-2.9,19.14,3.23-4.54-9.75-2.31-15.28,1.75-19.56"/><path class="cls-28" d="M76.82-12.73c4.27,4,5.54,9.32,2.29,16.48,6.65-6.45,11.64-6.16,16.08-4C92.68,5.18,88.06,8,80.31,7.26c8.07,4.27,9.29,9.07,8.59,14.08-5.9-.71-10-4.26-11.53-11.79-1.64,9-5.87,11.76-10.79,12.71-1.08-5.91,1-10.95,7.72-14.79-9,1.26-12.84-1.92-15.23-6.33C64.28-1.7,69.7-1.32,75.33,3.89c-3.85-8.28-2-13,1.49-16.62"/><path class="cls-29" d="M80.19,2.3a5.4,5.4,0,0,1-6.05,8.95A5.4,5.4,0,0,1,80.19,2.3"/><path class="cls-30" d="M79.17,3.8a3.65,3.65,0,0,1,.9,5,3.57,3.57,0,0,1-4.92,1,3.52,3.52,0,0,1-.95-4.93,3.59,3.59,0,0,1,5-1"/><path class="cls-21" d="M78.34,5a2.15,2.15,0,0,1-2.4,3.55A2.14,2.14,0,1,1,78.34,5"/><path class="cls-31" d="M151.91,77.78c-4.75,7.77-10,10.6-13.5,11.62l.29.34s9.5,1.07,17.6-12.16c0,0,10.12-7.84,3.67-27.4a50.86,50.86,0,0,1-3.17,4.56c3.71,16.37-4.88,23-4.88,23"/><path class="cls-32" d="M146,64.33c-7.59,3.57-16.3,15.1-7.6,25.07,3.51-1,8.75-3.86,13.5-11.62,0,0,8.59-6.67,4.88-23-2.56,3.31-6.45,7.56-10.78,9.6"/><path class="cls-33" d="M65.15,35a4.69,4.69,0,1,0-5-4.76,7,7,0,0,1,5,4.76"/><path class="cls-33" d="M63.6,41.78A7.07,7.07,0,0,1,62.14,43c.21.33,4,4.24,7.39.65a4.69,4.69,0,0,0-4.18-7.81,7,7,0,0,1-1.75,6"/><path class="cls-33" d="M59.18,30A4.69,4.69,0,0,0,51,26.62c-3.56,3.85.81,7.06,1.1,7.23a7,7,0,0,1,7-3.82"/><path class="cls-33" d="M51.81,34.62a4.69,4.69,0,0,0-5.36,1.1,4.56,4.56,0,0,0,.27,6.63c4,3.1,6.69-.35,6.72-.38a7,7,0,0,1-1.63-7.35"/><path class="cls-33" d="M54.34,42.75s-3.35,4,.14,6.76a4.83,4.83,0,0,0,6.63-.28,4.7,4.7,0,0,0,.38-5.88,7,7,0,0,1-7.15-.6"/><path class="cls-34" d="M62.55,32.4a6.28,6.28,0,1,0,.37,8.88,6.29,6.29,0,0,0-.37-8.88m-.57,8a5,5,0,1,1-.3-7.08A5,5,0,0,1,62,40.42Z"/><path class="cls-35" d="M61.31,39.8A4.1,4.1,0,1,1,61.07,34a4.1,4.1,0,0,1,.24,5.79"/><path class="cls-36" d="M107.13,58.36a4.69,4.69,0,1,0-5.68-3.87,7,7,0,0,1,5.68,3.87"/><path class="cls-36" d="M100.43,54.48a4.69,4.69,0,0,0-8.59-2c-2.86,4.39,2,6.83,2.29,6.94a7,7,0,0,1,6.3-4.94"/><path class="cls-34" d="M104.14,56.26A6.28,6.28,0,1,0,106,65a6.29,6.29,0,0,0-1.84-8.69m.78,8a5,5,0,1,1-1.47-6.93A5,5,0,0,1,104.92,64.26Z"/><path class="cls-7" d="M249.48,33.68s4.93-11,16-6.11c0,0-5.49,11.5-16,6.11"/><path class="cls-37" d="M234.39,84.54a4.26,4.26,0,0,0,.2,4.3c4,5,8.66.41,9.07-.7,0,.74,1.53,6.65,7.35,4.18a4.75,4.75,0,0,0,2.44-5.57v0a5,5,0,0,0,9-4.31A5,5,0,0,0,270,76.85c.2-.08,3.1.1,4-2.63,1.35-3.91-1.54-4.51-1.58-4.58,2.07-1.43,3.07-4.38,1.56-6.47a5.37,5.37,0,0,0-7-1.87,5.65,5.65,0,0,0-.28-4.5,5,5,0,0,0-9.35,2.12c-.07-.61-2-6.38-7.33-3.78a4.86,4.86,0,0,0-2.5,5.28,4.9,4.9,0,0,0-6.21-1.18c-4.4,2.62-1.68,7.27-1.5,7.5-1.51-1.13-3.78-1.64-5.37-.4-5.27,4.12-1.08,8-.46,8.46v0c-1.08-.2-7.55,1.07-5.27,7.27.8,2.18,3.43,3,5.58,2.44"/><path class="cls-17" d="M53.27,23.85a4.93,4.93,0,0,0,.3-7.15,5,5,0,0,0-4.29-1.61,7.44,7.44,0,0,0-.15-1,5.06,5.06,0,1,0-4.72-5.35,7.4,7.4,0,0,0-1.08-.29,5.06,5.06,0,0,0-1.25-4.29,5.17,5.17,0,0,0-7.16-.3c-4.56,3.74.33,7.76.69,8a8.06,8.06,0,0,0-.43.78,5.06,5.06,0,0,0-6.35,7.76c3.28,3.58,7.32.14,7.4.05.07.09.68.73.92.93-.11.08-4.37,4.06-.62,7.4,2.09,1.86,5.1,2.2,7.15.31a5.06,5.06,0,0,0,.83-6.46,6.14,6.14,0,0,0,.74-.33c.21.44,3,5.43,8,1.54"/><path class="cls-38" d="M46.1,15.2a4,4,0,1,1-4-3.92,4,4,0,0,1,4,3.92"/><path class="cls-39" d="M239.07,5.76a1.36,1.36,0,0,0,.72-1.85,1.4,1.4,0,0,0-1-.81,2,2,0,0,0,.05-.27A1.4,1.4,0,1,0,238.11,1l-.26-.17a1.4,1.4,0,0,0,.06-1.24,1.43,1.43,0,0,0-1.85-.72c-1.53.57-.61,2.06-.54,2.15l-.18.17A1.4,1.4,0,0,0,233,2.66a1.47,1.47,0,0,0,1.94.68,3.58,3.58,0,0,0,.16.33s-1.51.67-.83,1.88a1.45,1.45,0,0,0,1.84.72,1.4,1.4,0,0,0,.8-1.62l.22,0a1.36,1.36,0,0,0,2,1.12"/><path class="cls-40" d="M293.85,49.12a.91.91,0,0,0,.49-1.24.94.94,0,0,0-.66-.54,1.65,1.65,0,0,0,0-.18.94.94,0,1,0,0-1.72.93.93,0,0,0-.49.5l-.17-.11a.93.93,0,0,0,0-.83,1,1,0,0,0-1.24-.48c-1,.38-.41,1.38-.36,1.44l-.12.11a.94.94,0,0,0-1.58,1,1,1,0,0,0,1.29.46l.11.22s-1,.45-.55,1.26a1,1,0,0,0,1.23.49.94.94,0,0,0,.54-1.08h.15a.91.91,0,0,0,1.31.75"/><path class="cls-13" d="M90.1,45a.91.91,0,0,0,.48-1.24.93.93,0,0,0-.66-.54,1.48,1.48,0,0,0,0-.18.94.94,0,1,0-.51-1.22l-.17-.11a.94.94,0,0,0,0-.83,1,1,0,0,0-1.24-.48c-1,.38-.41,1.38-.36,1.44L87.6,42A.94.94,0,0,0,86,43a1,1,0,0,0,1.29.45s.08.17.11.22-1,.45-.55,1.26a1,1,0,0,0,1.23.49.94.94,0,0,0,.54-1.08h.15A.91.91,0,0,0,90.1,45"/><path class="cls-41" d="M248.77,22.19a1.81,1.81,0,0,0,2.63-.07,1.85,1.85,0,0,0,.48-1.62l.35-.08a1.86,1.86,0,1,0,1.84-1.87,2.72,2.72,0,0,0,.08-.4,1.86,1.86,0,0,0,1.54-.57,1.9,1.9,0,0,0-.07-2.63c-1.49-1.58-2.84.32-2.91.46l-.3-.14a1.86,1.86,0,0,0-3-2.13,2,2,0,0,0,.17,2.72s-.25.27-.32.36-1.6-1.5-2.73,0a1.93,1.93,0,0,0,.07,2.63A1.86,1.86,0,0,0,249,19a2.21,2.21,0,0,0,.14.26,1.81,1.81,0,0,0-.36,3"/><path class="cls-41" d="M119.58,59.4a1.81,1.81,0,0,0,2.63-.07,1.85,1.85,0,0,0,.48-1.61l.35-.08a1.86,1.86,0,1,0,1.85-1.87,2.9,2.9,0,0,0,.08-.4,1.86,1.86,0,0,0,1.54-.57,1.9,1.9,0,0,0-.07-2.63c-1.49-1.58-2.84.32-2.91.46l-.3-.14a1.86,1.86,0,0,0-3-2.13,2,2,0,0,0,.17,2.72s-.25.27-.32.36-1.6-1.5-2.73,0a1.93,1.93,0,0,0,.07,2.63,1.86,1.86,0,0,0,2.4.14,2.08,2.08,0,0,0,.14.26,1.81,1.81,0,0,0-.36,3"/><path class="cls-42" d="M79.42,53.74a1.81,1.81,0,0,0,.76,2.52,1.85,1.85,0,0,0,1.68,0,2.42,2.42,0,0,0,.17.32,1.86,1.86,0,1,0,2.29,1.29,2.54,2.54,0,0,0,.41,0,1.86,1.86,0,0,0,1,1.34,1.9,1.9,0,0,0,2.52-.76c1.13-1.85-1.05-2.65-1.21-2.69a3.08,3.08,0,0,0,.05-.32A1.86,1.86,0,0,0,88.32,52a2,2,0,0,0-2.58.88s-.32-.17-.43-.21,1-1.94-.68-2.65a1.93,1.93,0,0,0-2.52.76,1.86,1.86,0,0,0,.49,2.35l-.22.2a1.81,1.81,0,0,0-3,.43"/><path class="cls-42" d="M6.1,41.17a1.81,1.81,0,0,0,.76,2.52,1.86,1.86,0,0,0,1.68,0,2.58,2.58,0,0,0,.17.32A1.86,1.86,0,1,0,11,45.34a2.82,2.82,0,0,0,.41,0,1.86,1.86,0,0,0,1,1.34,1.9,1.9,0,0,0,2.52-.76C16,44,13.83,43.24,13.68,43.2a3.24,3.24,0,0,0,.05-.33A1.86,1.86,0,0,0,15,39.41a2,2,0,0,0-2.58.88s-.32-.17-.43-.21,1-1.94-.68-2.65a1.94,1.94,0,0,0-2.52.76,1.86,1.86,0,0,0,.49,2.35l-.22.2a1.81,1.81,0,0,0-3,.43"/><path class="cls-42" d="M138.58,54.51a1.81,1.81,0,0,0,.76,2.52,1.86,1.86,0,0,0,1.68,0,2.72,2.72,0,0,0,.17.32,1.86,1.86,0,1,0,2.29,1.29,2.69,2.69,0,0,0,.41,0,1.86,1.86,0,0,0,1,1.34,1.9,1.9,0,0,0,2.52-.76c1.13-1.85-1.05-2.65-1.21-2.69a3.21,3.21,0,0,0,.05-.32,1.86,1.86,0,0,0,1.27-3.46,2,2,0,0,0-2.58.88s-.32-.17-.43-.21,1-1.94-.68-2.65a1.94,1.94,0,0,0-2.52.76,1.86,1.86,0,0,0,.49,2.35l-.22.2a1.81,1.81,0,0,0-3,.43"/><path class="cls-41" d="M218.19,8.62a4.93,4.93,0,0,0,5.56-4.51,5,5,0,0,0-1.64-4.28,7.17,7.17,0,0,0,.63-.75A5,5,0,0,0,226.22,1a5.07,5.07,0,0,0,5.56-4.51,5.06,5.06,0,0,0-4.52-5.56A5,5,0,0,0,223.62-8a8.06,8.06,0,0,0-.5-1,5.06,5.06,0,0,0,2.39-3.78A5.17,5.17,0,0,0,221-18.35c-5.82-.94-5.59,5.39-5.52,5.81a7.85,7.85,0,0,0-.87.2,5.07,5.07,0,0,0-4.46-4.12A5.07,5.07,0,0,0,204.58-12c-.51,4.83,4.75,5.58,4.87,5.58s-.09,1-.09,1.31c-.13,0-5.94-.58-6,4.45,0,2.8,1.73,5.27,4.51,5.56a5.06,5.06,0,0,0,5.39-3.66,6.25,6.25,0,0,0,.73.34c-.19.45-2.07,5.85,4.14,7"/><path class="cls-43" d="M271.94,51.15a2,2,0,0,0,.16-2.91,2.06,2.06,0,0,0-1.74-.67,3,3,0,0,0-.05-.4,2.06,2.06,0,1,0-1.9-2.2,3,3,0,0,0-.44-.12,2.05,2.05,0,0,0-.49-1.75,2.1,2.1,0,0,0-2.91-.16c-1.87,1.5.1,3.16.25,3.25a3.23,3.23,0,0,0-.18.32A2.06,2.06,0,0,0,262,49.64c1.32,1.47,3,.09,3,.05s.27.3.37.38-1.8,1.64-.28,3a2.15,2.15,0,0,0,2.91.16,2.06,2.06,0,0,0,.37-2.63l.3-.13a2,2,0,0,0,3.25.66"/><path class="cls-44" d="M169,56a2,2,0,0,0,2.08-2,2.05,2.05,0,0,0-.83-1.67,3,3,0,0,0,.23-.33,2.06,2.06,0,1,0,.09-2.9,3,3,0,0,0-.24-.38,2.06,2.06,0,0,0,.83-1.63,2.1,2.1,0,0,0-2-2.08c-2.4-.16-2.06,2.4-2,2.56l-.34.11a2.06,2.06,0,0,0-4,.54c0,2,2.14,2.08,2.18,2.08s0,.4,0,.53-2.43,0-2.25,2a2.14,2.14,0,0,0,2,2.08,2.06,2.06,0,0,0,2-1.69l.31.11A2,2,0,0,0,169,56"/><path class="cls-45" d="M31.17,53.25l1.23-1.33-1.61-1.49,2,1,.82-1.62-.26,1.8,1.8.26-1.78.32L33.64,54l-.87-1.59Zm6.32-1.43L38,48.07l-3.75-.55L30.9,45.81l-1.76,3.48L26.5,52.16l2.78,2.57L31.11,58l3.32-1.82,3.73-.67Z"/><path class="cls-17" d="M157,48.19a1.46,1.46,0,1,1-1.46-1.46A1.46,1.46,0,0,1,157,48.19"/><path class="cls-17" d="M267.8,37.21a1.46,1.46,0,1,1-1.46-1.46,1.46,1.46,0,0,1,1.46,1.46"/><path class="cls-46" d="M93.06,36.21a1.43,1.43,0,1,1-1.43-1.44,1.44,1.44,0,0,1,1.43,1.44"/><path class="cls-46" d="M230.86,7.25a1.44,1.44,0,1,1-1.43-1.44,1.43,1.43,0,0,1,1.43,1.44"/><path class="cls-46" d="M259.82,39.2a1.43,1.43,0,1,1-1.44-1.44,1.44,1.44,0,0,1,1.44,1.44"/><path class="cls-46" d="M96.24,14a1.43,1.43,0,1,1-1.43-1.44A1.43,1.43,0,0,1,96.24,14"/><path class="cls-46" d="M318.73,14.24a1.43,1.43,0,1,1-1.43-1.44,1.43,1.43,0,0,1,1.43,1.44"/><path class="cls-46" d="M23.16,20.23a1.44,1.44,0,1,1-1.44-1.44,1.43,1.43,0,0,1,1.44,1.44"/><path class="cls-37" d="M238.28,44.94a2.6,2.6,0,1,1-2.6-2.51,2.56,2.56,0,0,1,2.6,2.51"/><path class="cls-37" d="M275.79,31.22a2.6,2.6,0,1,1-2.6-2.51,2.56,2.56,0,0,1,2.6,2.51"/><path class="cls-37" d="M174.15,4.26a2.6,2.6,0,0,1-5.2,0,2.6,2.6,0,0,1,5.2,0"/><path class="cls-37" d="M221.08,27.22a2.6,2.6,0,1,1-2.6-2.51,2.56,2.56,0,0,1,2.6,2.51"/><path class="cls-37" d="M183.14,55.18a2.6,2.6,0,1,1-2.6-2.51,2.56,2.56,0,0,1,2.6,2.51"/><path class="cls-37" d="M42.13,34.21a2.6,2.6,0,1,1-2.6-2.51,2.56,2.56,0,0,1,2.6,2.51"/><path class="cls-15" d="M47.51,52.49a1.63,1.63,0,1,1-1.62-1.57,1.6,1.6,0,0,1,1.62,1.57"/><path class="cls-15" d="M29,24.53A1.63,1.63,0,1,1,27.41,23,1.6,1.6,0,0,1,29,24.53"/><path class="cls-15" d="M137,52.18a2.6,2.6,0,1,1-2.6-2.51,2.56,2.56,0,0,1,2.6,2.51"/><path class="cls-47" d="M13,29.36S5,22.09,3.75,27,13,29.36,13,29.36"/><path class="cls-48" d="M13.74,26.49s-3.53-8.67-6.33-5.3,6.33,5.3,6.33,5.3"/><path class="cls-49" d="M12.64,31.92S.85,30.79,3,35.91s9.65-4,9.65-4"/><polygon class="cls-33" points="80.91 38.92 77.92 40.93 78.9 44.39 76.07 42.17 73.08 44.17 74.32 40.8 71.49 38.57 75.09 38.71 76.33 35.33 77.31 38.79 80.91 38.92"/><path class="cls-13" d="M65.17,15.53a1.87,1.87,0,1,1-1.87-1.87,1.87,1.87,0,0,1,1.87,1.87"/><path class="cls-13" d="M257.44,50.42a1.87,1.87,0,1,1-1.87-1.87,1.87,1.87,0,0,1,1.87,1.87"/><path class="cls-13" d="M229,40.93a1.87,1.87,0,1,1-1.87-1.87A1.87,1.87,0,0,1,229,40.93"/><path class="cls-13" d="M66.1,51.92A1.87,1.87,0,1,1,64.23,50a1.87,1.87,0,0,1,1.87,1.87"/><path class="cls-13" d="M16.55,16.37a1.87,1.87,0,1,1-1.87-1.87,1.87,1.87,0,0,1,1.87,1.87"/><path class="cls-13" d="M22.16,53.19a1.87,1.87,0,1,1-1.87-1.87,1.87,1.87,0,0,1,1.87,1.87"/><path class="cls-13" d="M161,37.21a1.87,1.87,0,1,1-1.87-1.87A1.87,1.87,0,0,1,161,37.21"/><path class="cls-50" d="M57.91,54.84c-5.92.49-.72,21.52,1.2,28.59.64,0,1.29-.07,2-.07,3.25-8.2,3.18-29-3.17-28.51"/><path class="cls-37" d="M71.71,49.66c-7,2.09-10.07,23.57-11.15,33.75a27.65,27.65,0,0,1,3.73.17c6.88-14.74,15.47-36.33,7.42-33.92"/><path class="cls-51" d="M296-60.16c-17.92,7.85-40-2-47.46-20.74a29.4,29.4,0,0,1,16.36-38.17,23.19,23.19,0,0,1,17.86.22,23.18,23.18,0,0,1,12.48,12.79,18.4,18.4,0,0,1-.17,14.17A18.4,18.4,0,0,1,284.91-82a14.58,14.58,0,0,1-11.23-.14,14.57,14.57,0,0,1-7.84-8,11.5,11.5,0,0,1,.11-8.87,11.5,11.5,0,0,1,6.35-6.19,9.06,9.06,0,0,1,7,.08,9.06,9.06,0,0,1,4.87,5,7.1,7.1,0,0,1-.07,5.47,7.1,7.1,0,0,1-3.91,3.82,5.57,5.57,0,0,1-7.24-3.1,4.31,4.31,0,0,1,2.4-5.59.75.75,0,0,0,.42-1,.75.75,0,0,0-1-.42,5.75,5.75,0,0,0-3.18,3.1,5.76,5.76,0,0,0-.06,4.44,7,7,0,0,0,3.78,3.87,7,7,0,0,0,5.41.07,8.65,8.65,0,0,0,4.82-11.23,10.55,10.55,0,0,0-5.68-5.82,10.55,10.55,0,0,0-8.12-.1,13,13,0,0,0-7.17,7,13,13,0,0,0-.12,10,16.06,16.06,0,0,0,8.64,8.86,16.06,16.06,0,0,0,12.37.15,19.89,19.89,0,0,0,11-10.7,19.89,19.89,0,0,0,.19-15.32,24.68,24.68,0,0,0-13.28-13.61,24.68,24.68,0,0,0-19-.23,30.9,30.9,0,0,0-17.19,40.12,38.43,38.43,0,0,0,49,21.71,23.9,23.9,0,0,1,7.06,16.53,23.92,23.92,0,0,1-6.71,17.17,19,19,0,0,1-13.4,5.87,19,19,0,0,1-13.63-5.33A15,15,0,0,1,264.85-35a15.12,15.12,0,0,1,.83-5.23.81.81,0,0,0,.09-.11,18.73,18.73,0,0,0,1-2.23,15.17,15.17,0,0,1,2.35-3.21,11.88,11.88,0,0,1,8.39-3.68A11.89,11.89,0,0,1,286-46.14a9.36,9.36,0,0,1,2.89,6.6,9.36,9.36,0,0,1-2.62,6.72,7.34,7.34,0,0,1-5.18,2.27,7.33,7.33,0,0,1-5.27-2.06,5.72,5.72,0,0,1-1.77-4,5.73,5.73,0,0,1,1.6-4.11,4.47,4.47,0,0,1,6.3-.13,3.42,3.42,0,0,1,.1,4.83,2.59,2.59,0,0,1-3.65.07.75.75,0,0,0-1.06,0,.75.75,0,0,0,0,1.06,4.09,4.09,0,0,0,5.77-.12A4.92,4.92,0,0,0,283-42a6,6,0,0,0-8.42.17,7.2,7.2,0,0,0-2,5.17,7.21,7.21,0,0,0,2.23,5.09,8.82,8.82,0,0,0,6.33,2.47,8.82,8.82,0,0,0,6.23-2.73,10.84,10.84,0,0,0,3-7.78A10.85,10.85,0,0,0,287-47.22a13.36,13.36,0,0,0-9.6-3.75A13.37,13.37,0,0,0,268-46.84c-.13.13-.24.27-.36.41a17.91,17.91,0,0,0-.71-7.65A17.87,17.87,0,0,0,258-64.59a14.44,14.44,0,0,0-11.09-.93,14.44,14.44,0,0,0-8.5,7.19,11.8,11.8,0,0,0,5.07,15.87,9.59,9.59,0,0,0,12.9-4.12,7.77,7.77,0,0,0,.5-6,7.76,7.76,0,0,0-3.86-4.56,6.35,6.35,0,0,0-4.88-.41,6.36,6.36,0,0,0-3.74,3.16,5.24,5.24,0,0,0-.34,4,5.24,5.24,0,0,0,2.61,3.08A4.33,4.33,0,0,0,250-47a4.34,4.34,0,0,0,2.55-2.16,3.62,3.62,0,0,0,.23-2.78A3.61,3.61,0,0,0,251-54a3.05,3.05,0,0,0-2.34-.2,3,3,0,0,0-1.79,1.51.75.75,0,0,0,.32,1,.75.75,0,0,0,1-.32,1.56,1.56,0,0,1,.92-.77,1.56,1.56,0,0,1,1.19.1,2.13,2.13,0,0,1,1.06,1.25,2.14,2.14,0,0,1-.14,1.63,2.86,2.86,0,0,1-1.68,1.42,2.85,2.85,0,0,1-2.18-.18,3.75,3.75,0,0,1-1.86-2.2,3.73,3.73,0,0,1,.24-2.87,4.86,4.86,0,0,1,2.86-2.42,4.87,4.87,0,0,1,3.74.31,6.26,6.26,0,0,1,3.12,3.69,6.26,6.26,0,0,1-.4,4.82,8.09,8.09,0,0,1-10.89,3.48,10.3,10.3,0,0,1-4.43-13.86,13,13,0,0,1,7.62-6.45,13,13,0,0,1,10,.83,16.38,16.38,0,0,1,8.15,9.64,16.35,16.35,0,0,1-.14,10.41,16.49,16.49,0,0,0-2,8.23,16.39,16.39,0,0,0,.23,2.35,25.39,25.39,0,0,0-16.67,9.55,25.41,25.41,0,0,0-5.26,18.86,20.48,20.48,0,0,0,7.75,13.74,20.48,20.48,0,0,0,15.2,4.24A16.66,16.66,0,0,0,279.12-4.77a13.37,13.37,0,0,0-5.06-9,13.38,13.38,0,0,0-9.93-2.77,10.85,10.85,0,0,0-7.28,4.1,10.85,10.85,0,0,0-2.25,8.05,8.84,8.84,0,0,0,3.34,5.92A8.82,8.82,0,0,0,264.5,3.4,7.21,7.21,0,0,0,269.34.67a7.2,7.2,0,0,0,1.49-5.35,6,6,0,0,0-6.63-5.2,4.92,4.92,0,0,0-4.29,5.47,4,4,0,0,0,1.53,2.72,4.06,4.06,0,0,0,3,.84.75.75,0,0,0,.65-.83.75.75,0,0,0-.83-.65,2.56,2.56,0,0,1-1.9-.53,2.56,2.56,0,0,1-1-1.72,3.42,3.42,0,0,1,3-3.8,4.46,4.46,0,0,1,5,3.89,5.72,5.72,0,0,1-1.18,4.25,5.71,5.71,0,0,1-3.84,2.16A7.34,7.34,0,0,1,258.87.39a7.33,7.33,0,0,1-2.77-4.92A9.35,9.35,0,0,1,258-11.48,9.36,9.36,0,0,1,264.31-15a11.89,11.89,0,0,1,8.82,2.46,11.88,11.88,0,0,1,4.5,8,15.16,15.16,0,0,1-13.21,16.86,19,19,0,0,1-14.09-3.93A19,19,0,0,1,243.15-4.4a23.92,23.92,0,0,1,4.95-17.75,23.91,23.91,0,0,1,15.79-9,16.52,16.52,0,0,0,4.58,7.85,20.47,20.47,0,0,0,14.7,5.74,20.48,20.48,0,0,0,14.45-6.33,25.56,25.56,0,0,0,7.13-18.23c-.11-7.53-5.36-19.51-8.75-18"/><path class="cls-52" d="M282,18.74a7.49,7.49,0,1,1-7.49-7.49A7.49,7.49,0,0,1,282,18.74"/><path class="cls-34" d="M280.53,18.74a6,6,0,1,1-6-6,6,6,0,0,1,6,6"/><path class="cls-15" d="M278.74,18.74a4.19,4.19,0,1,1-4.19-4.19,4.19,4.19,0,0,1,4.19,4.19"/><path class="cls-12" d="M277.24,18.74a2.7,2.7,0,1,1-2.7-2.69,2.7,2.7,0,0,1,2.7,2.69"/><path class="cls-52" d="M315,47.09a2.5,2.5,0,1,1-2.5-2.5,2.5,2.5,0,0,1,2.5,2.5"/><path class="cls-34" d="M314.48,47.09a2,2,0,1,1-2-2,2,2,0,0,1,2,2"/><path class="cls-15" d="M313.88,47.09a1.4,1.4,0,1,1-1.4-1.4,1.4,1.4,0,0,1,1.4,1.4"/><path class="cls-12" d="M313.38,47.09a.9.9,0,1,1-.9-.9.9.9,0,0,1,.9.9"/><path class="cls-52" d="M105.79,43.43a5,5,0,1,1-5-5,5,5,0,0,1,5,5"/><path class="cls-34" d="M104.79,43.43a4,4,0,1,1-4-4,4,4,0,0,1,4,4"/><path class="cls-15" d="M103.6,43.43a2.8,2.8,0,1,1-2.8-2.8,2.8,2.8,0,0,1,2.8,2.8"/><path class="cls-12" d="M102.6,43.43a1.8,1.8,0,1,1-1.8-1.8,1.8,1.8,0,0,1,1.8,1.8"/><path class="cls-52" d="M32.85,35.21a9,9,0,1,1-9-9,9,9,0,0,1,9,9"/><path class="cls-34" d="M31.05,35.21A7.19,7.19,0,1,1,23.86,28a7.19,7.19,0,0,1,7.19,7.19"/><path class="cls-15" d="M28.9,35.21a5,5,0,1,1-5-5,5,5,0,0,1,5,5"/><path class="cls-12" d="M27.1,35.21A3.24,3.24,0,1,1,23.86,32a3.23,3.23,0,0,1,3.24,3.23"/><path class="cls-44" d="M197.41,56.18a2.5,2.5,0,1,1-2.5-2.5,2.5,2.5,0,0,1,2.5,2.5"/><path class="cls-44" d="M44.13,42.2a2.5,2.5,0,1,1-2.5-2.5,2.5,2.5,0,0,1,2.5,2.5"/><path class="cls-44" d="M228.86,9.75a2.5,2.5,0,1,1-2.5-2.5,2.5,2.5,0,0,1,2.5,2.5"/><path class="cls-44" d="M288.27,21.73a2.5,2.5,0,1,1-2.5-2.5,2.5,2.5,0,0,1,2.5,2.5"/><path class="cls-44" d="M249.33,27.72a2.5,2.5,0,1,1-2.5-2.5,2.5,2.5,0,0,1,2.5,2.5"/></g></svg>