<svg id="Capa_1" data-name="Capa 1" xmlns="http://www.w3.org/2000/svg" viewBox="0 0 26.67 26.67"><defs><style>.cls-1{fill:#fff;}</style></defs><title>busket</title><path class="cls-1" d="M23.25,9.93h-.83l-3.72-7a.68.68,0,1,0-1.21.64l3.38,6.38H5.9L9.29,3.55a.68.68,0,1,0-1.21-.64l-3.72,7H3.42a1.78,1.78,0,1,0,0,3.55h0v0l1.43,8A3.15,3.15,0,0,0,8,24.12H18.76a3.15,3.15,0,0,0,3.1-2.6l1.43-8v0a1.77,1.77,0,0,0-.05-3.55ZM20.51,21.28a1.78,1.78,0,0,1-1.75,1.47H8a1.78,1.78,0,0,1-1.75-1.47l-1.39-7.8h17Zm2.73-9.17H3.42a.41.41,0,0,1,0-.81H23.25a.41.41,0,0,1,0,.81Z"/><path class="cls-1" d="M13.3,14.43a.68.68,0,0,0-.68.68v6a.68.68,0,1,0,1.37,0v-6A.68.68,0,0,0,13.3,14.43Z"/><path class="cls-1" d="M11,21l-1-6a.68.68,0,1,0-1.35.23l1,6a.69.69,0,0,0,.67.57h.11A.68.68,0,0,0,11,21Z"/><path class="cls-1" d="M17.39,14.44a.69.69,0,0,0-.79.56l-1,6a.69.69,0,0,0,.56.79h.11a.68.68,0,0,0,.67-.57l1-6A.68.68,0,0,0,17.39,14.44Z"/></svg>