<svg id="Слой_4" data-name="Слой 4" xmlns="http://www.w3.org/2000/svg" viewBox="0 0 35 35"><title>gift</title><path d="M16.82,30.76a.68.68,0,0,0-.68.68h0a.68.68,0,1,0,1.35,0h0A.68.68,0,0,0,16.82,30.76Z"/><path d="M12,17.79a.68.68,0,0,0-.68.68h0a.68.68,0,0,0,1.35,0h0A.68.68,0,0,0,12,17.79Z"/><path d="M34.72,14.22a2.66,2.66,0,0,0-1.25-1.63l-3.34-1.93a2.74,2.74,0,0,0,1.11-1.15,2.78,2.78,0,0,0-1-3.59,2.76,2.76,0,0,0-3.88.94,1.27,1.27,0,0,1-.15.21,3.08,3.08,0,0,0-.07-.34,3,3,0,0,0-3.74-2.16l-.33.11a1.27,1.27,0,0,1,.1-.23A2.76,2.76,0,0,0,21.1.62a2.78,2.78,0,0,0-3.59,1,2.74,2.74,0,0,0-.44,1.54L13.74,1.2a2.68,2.68,0,0,0-3.66,1L8.19,5.44a.67.67,0,0,0,.25.92l15.64,9H16a3.68,3.68,0,0,0,.46-1.72A3.6,3.6,0,0,0,12.92,10a3.49,3.49,0,0,0-2.09.7A3.49,3.49,0,0,0,8.75,10a3.6,3.6,0,0,0-3.54,3.64,3.68,3.68,0,0,0,.46,1.72H1.17a.67.67,0,0,0-.67.67V31.95a2.68,2.68,0,0,0,2.68,2.68H26a2.68,2.68,0,0,0,2.68-2.68V18l3,1.73a.67.67,0,0,0,.34.09l.17,0a.67.67,0,0,0,.41-.31l1.89-3.27A2.66,2.66,0,0,0,34.72,14.22ZM27.56,7.54a1.42,1.42,0,0,1,2-.48,1.43,1.43,0,0,1,.49,1.85,1.42,1.42,0,0,1-2,.58h0l-1.58-.91A2.6,2.6,0,0,0,27.56,7.54ZM24.09,6a1.7,1.7,0,0,1,.8,1,1.72,1.72,0,0,1,.06.38l-.45-.06-1.75-1,0,0L22.44,6A1.71,1.71,0,0,1,24.09,6ZM18.64,2.31a1.43,1.43,0,0,1,1.85-.49,1.42,1.42,0,0,1,.58,2,2.6,2.6,0,0,0-.35,1.44l-1.58-.91h0a1.42,1.42,0,0,1-.48-2Zm-9,3.23,1.55-2.69a1.34,1.34,0,0,1,1.83-.49l7.22,4.17-2.22,3.85ZM19.23,11,21.45,7.2l3,1.71-2.22,3.85Zm-10.48.33a2.14,2.14,0,0,1,1.59.71.67.67,0,0,0,1,0,2.14,2.14,0,0,1,1.59-.71,2.26,2.26,0,0,1,2.2,2.3,3,3,0,0,1-.71,1.72H7.26a3,3,0,0,1-.71-1.72A2.26,2.26,0,0,1,8.75,11.37ZM27.31,31.95A1.34,1.34,0,0,1,26,33.29H12.83V21.06a.67.67,0,0,0-1.34,0V33.29H3.18a1.34,1.34,0,0,1-1.34-1.34V16.73H16.32V28.9a.67.67,0,1,0,1.34,0V16.73H26.4l.9.52Zm6-16.37-1.55,2.69-8.39-4.84,2.22-3.85,7.23,4.17a1.34,1.34,0,0,1,.49,1.83Z"/><path d="M3.89,7.19a1.88,1.88,0,0,0-.9.23,1.88,1.88,0,0,0-.9-.23,1.94,1.94,0,0,0-1.91,2c0,1.52,2.07,2.72,2.48,2.95a.68.68,0,0,0,.65,0c.41-.23,2.48-1.43,2.48-2.95A1.94,1.94,0,0,0,3.89,7.19ZM3,10.72C2.3,10.28,1.54,9.6,1.54,9.15a.58.58,0,0,1,.56-.6.53.53,0,0,1,.4.18.68.68,0,0,0,1,0,.53.53,0,0,1,.4-.18.58.58,0,0,1,.56.6C4.45,9.59,3.68,10.28,3,10.72Z"/><path d="M5.75,0A2.33,2.33,0,0,0,4.52.36,2.33,2.33,0,0,0,3.28,0,2.41,2.41,0,0,0,.91,2.44c0,2,2.95,3.65,3.28,3.84a.68.68,0,0,0,.65,0c.34-.18,3.28-1.85,3.28-3.84A2.41,2.41,0,0,0,5.75,0ZM4.52,4.9c-.9-.56-2.25-1.63-2.25-2.46a1.06,1.06,0,0,1,1-1.09A1,1,0,0,1,4,1.68a.68.68,0,0,0,1,0,1,1,0,0,1,.73-.33,1.06,1.06,0,0,1,1,1.09C6.77,3.26,5.41,4.34,4.52,4.9Z"/><path d="M6.69,18.94a1.91,1.91,0,0,0-.91.23,1.91,1.91,0,0,0-.91-.23,2,2,0,0,0-1.93,2c0,1.53,2.1,2.74,2.52,3a.68.68,0,0,0,.64,0c.42-.23,2.52-1.44,2.52-3A2,2,0,0,0,6.69,18.94Zm-.91,3.55C5.08,22,4.3,21.35,4.3,20.9a.6.6,0,0,1,.58-.61.56.56,0,0,1,.41.19.68.68,0,0,0,1,0,.56.56,0,0,1,.41-.18.6.6,0,0,1,.58.61C7.27,21.35,6.49,22,5.78,22.49Z"/><path d="M6.69,27a1.91,1.91,0,0,0-.91.23A1.91,1.91,0,0,0,4.87,27a2,2,0,0,0-1.93,2c0,1.53,2.1,2.74,2.52,3a.68.68,0,0,0,.64,0c.42-.23,2.52-1.44,2.52-3A2,2,0,0,0,6.69,27Zm-.91,3.55C5.08,30.09,4.3,29.4,4.3,29a.6.6,0,0,1,.58-.61.56.56,0,0,1,.41.19.68.68,0,0,0,1,0,.56.56,0,0,1,.41-.18.6.6,0,0,1,.58.61C7.27,29.4,6.49,30.09,5.78,30.54Z"/><path d="M24,18.94a1.91,1.91,0,0,0-.91.23,1.91,1.91,0,0,0-.91-.23,2,2,0,0,0-1.93,2c0,1.53,2.1,2.74,2.52,3a.68.68,0,0,0,.64,0c.42-.23,2.52-1.44,2.52-3A2,2,0,0,0,24,18.94ZM23,22.49c-.7-.45-1.49-1.14-1.49-1.59a.6.6,0,0,1,.58-.61.56.56,0,0,1,.41.19.68.68,0,0,0,1,0,.56.56,0,0,1,.41-.19.6.6,0,0,1,.58.61C24.53,21.35,23.75,22,23,22.49Z"/><path d="M24,27a1.91,1.91,0,0,0-.91.23,1.91,1.91,0,0,0-.91-.23,2,2,0,0,0-1.93,2c0,1.53,2.1,2.74,2.52,3a.68.68,0,0,0,.64,0c.42-.23,2.52-1.44,2.52-3A2,2,0,0,0,24,27ZM23,30.54c-.7-.45-1.49-1.14-1.49-1.59a.6.6,0,0,1,.58-.61.56.56,0,0,1,.41.19.68.68,0,0,0,1,0,.56.56,0,0,1,.41-.19.6.6,0,0,1,.58.61C24.53,29.4,23.75,30.09,23,30.54Z"/></svg>