<svg xmlns="http://www.w3.org/2000/svg" xmlns:xlink="http://www.w3.org/1999/xlink" width="20" height="20"
     viewBox="0 0 20 20">
    <defs>
        <path id="dw69a"
              d="M2134 2355a10 10 0 0 1 9.8 8h-2.73a7.35 7.35 0 0 0-12.75-2.66h2.68a1 1 0 0 1 1 1v.66a1 1 0 0 1-1 1h-6.8l.07-.32a1 1 0 0 1-.27-.68v-6a1 1 0 0 1 1-1h.66a1 1 0 0 1 1 1v2.2a9.97 9.97 0 0 1 7.34-3.2zm0 20a10 10 0 0 1-9.8-8h2.73a7.35 7.35 0 0 0 12.75 2.66H2137a1 1 0 0 1-1-1v-.66a1 1 0 0 1 1-1h6.8l-.07.32a1 1 0 0 1 .27.68v6a1 1 0 0 1-1 1h-.66a1 1 0 0 1-1-1v-2.2a9.97 9.97 0 0 1-7.34 3.2zm-10-10v-.05.05z"/>
    </defs>
    <g>
        <g transform="translate(-2124 -2355)">
            <use fill="#993164" xlink:href="#dw69a"/>
        </g>
    </g>
</svg>