<svg id="Слой_1" data-name="Слой 1" xmlns="http://www.w3.org/2000/svg" viewBox="0 0 299 23"><defs><style>.cls-1{fill:#fff;}</style></defs><title>zag</title><path class="cls-1" d="M283.5,19.5c-8.4,0-12.8-2.9-16.7-5.4s-7-4.6-14-4.6-10.2,2.1-14,4.6-8.3,5.4-16.7,5.4-12.8-2.9-16.7-5.4-7-4.6-14-4.6-10.2,2.1-14,4.6-8.3,5.4-16.7,5.4-12.8-2.9-16.7-5.4-7-4.6-14-4.6-10.2,2.1-14,4.6-8.3,5.4-16.7,5.4-12.8-2.9-16.7-5.4-7-4.6-14-4.6-10.2,2.1-14,4.6-8.3,5.4-16.7,5.4-12.8-2.9-16.7-5.4-7-4.6-14-4.6A2.43,2.43,0,0,1,5,7,2.48,2.48,0,0,1,7.5,4.5c8.4,0,12.8,2.9,16.7,5.4s7,4.6,14,4.6,10.2-2.1,14-4.6,8.3-5.4,16.7-5.4S81.7,7.4,85.6,9.9s7,4.6,14,4.6,10.2-2.1,14-4.6,8.3-5.4,16.7-5.4S143.1,7.4,147,9.9s7,4.6,14,4.6,10.2-2.1,14-4.6,8.3-5.4,16.7-5.4,12.8,2.9,16.7,5.4,7,4.6,14,4.6,10.2-2.1,14-4.6,8.3-5.4,16.7-5.4,12.8,2.9,16.7,5.4,7,4.6,14,4.6a2.48,2.48,0,0,1,2.5,2.5A2.75,2.75,0,0,1,283.5,19.5Z"/></svg>