<?xml version="1.0" encoding="utf-8"?>
<svg version="1.1" id="Слой_1" xmlns="http://www.w3.org/2000/svg" xmlns:xlink="http://www.w3.org/1999/xlink" x="0px" y="0px"
	 viewBox="0 0 299 23" style="enable-background:new 0 0 299 23;" xml:space="preserve">
<style type="text/css">
	.st0{fill:url(#SVGID_1_);}
</style>
<title>zig</title>
<linearGradient id="SVGID_1_" gradientUnits="userSpaceOnUse" x1="5" y1="11" x2="286" y2="11" gradientTransform="matrix(1 0 0 -1 0 23)">
	<stop  offset="0" style="stop-color:#803575"/>
	<stop  offset="0.51" style="stop-color:#CA3964"/>
	<stop  offset="1" style="stop-color:#F77A63"/>
</linearGradient>
<path class="st0" d="M283.5,19.5c-8.4,0-12.8-2.9-16.7-5.4c-3.8-2.5-7-4.6-14-4.6c-6.9,0-10.2,2.1-14,4.6c-3.9,2.5-8.3,5.4-16.7,5.4
	s-12.8-2.9-16.7-5.4c-3.8-2.5-7-4.6-14-4.6s-10.2,2.1-14,4.6c-3.9,2.5-8.3,5.4-16.7,5.4c-8.4,0-12.8-2.9-16.7-5.4
	c-3.8-2.5-7-4.6-14-4.6c-6.9,0-10.2,2.1-14,4.6c-3.9,2.5-8.3,5.4-16.7,5.4c-8.4,0-12.8-2.9-16.7-5.4c-3.8-2.5-7-4.6-14-4.6
	c-6.9,0-10.2,2.1-14,4.6c-3.9,2.5-8.3,5.4-16.7,5.4s-12.8-2.9-16.7-5.4c-3.8-2.5-7-4.6-14-4.6C6.1,9.5,5,8.4,5,7s1.1-2.5,2.5-2.5
	c8.4,0,12.8,2.9,16.7,5.4c3.8,2.5,7,4.6,14,4.6s10.2-2.1,14-4.6c3.9-2.5,8.3-5.4,16.7-5.4s12.8,2.9,16.7,5.4c3.8,2.5,7,4.6,14,4.6
	c6.9,0,10.2-2.1,14-4.6c3.9-2.5,8.3-5.4,16.7-5.4c8.4,0,12.8,2.9,16.7,5.4c3.8,2.5,7,4.6,14,4.6c6.9,0,10.2-2.1,14-4.6
	c3.9-2.5,8.3-5.4,16.7-5.4s12.8,2.9,16.7,5.4c3.8,2.5,7,4.6,14,4.6s10.2-2.1,14-4.6c3.9-2.5,8.3-5.4,16.7-5.4
	c8.4,0,12.8,2.9,16.7,5.4c3.8,2.5,7,4.6,14,4.6c1.4,0,2.5,1.1,2.5,2.5S284.9,19.5,283.5,19.5z"/>
</svg>
